<svg width="196" height="100" viewBox="0 0 196 100" fill="none" xmlns="http://www.w3.org/2000/svg">
<g opacity="0.6">
<path fill-rule="evenodd" clip-rule="evenodd" d="M142.053 41.113C142.549 41.0136 143.003 40.7676 143.355 40.4078L143.358 40.3999C143.754 39.9932 144.007 39.4714 144.08 38.9116C144.154 38.3518 144.043 37.7836 143.764 37.2908C143.491 36.8022 143.06 36.4179 142.541 36.1994C142.021 35.9809 141.442 35.9407 140.896 36.0852C140.379 36.2357 139.92 36.5399 139.583 36.9564C139.245 37.3729 139.045 37.8818 139.01 38.4141C138.975 38.9465 139.107 39.4766 139.386 39.9328C139.666 40.3891 140.081 40.7494 140.575 40.965C141.041 41.1609 141.556 41.2125 142.053 41.113ZM152.382 59.9948H147.954V37.3846H152.385L152.382 59.9948ZM161 59.9948H156.572V37.3846H161V59.9948ZM143.759 59.9948H139.339V43.4856H143.761L143.759 59.9948ZM130.895 59.9948H135.325L135.354 49.8081C135.433 48.0476 134.807 46.3273 133.612 45.0194C133.075 44.448 132.422 43.9957 131.695 43.6923C130.968 43.3888 130.184 43.2412 129.395 43.2591C128.541 43.2729 127.699 43.4636 126.923 43.8188C126.148 44.1741 125.457 44.6859 124.894 45.3214V37.3872H120.466V59.987H124.896V50.9096C124.858 50.3906 124.927 49.8694 125.097 49.3771C125.268 48.8849 125.538 48.4319 125.89 48.0452C126.189 47.7369 126.548 47.4919 126.946 47.3249C127.344 47.158 127.772 47.0726 128.204 47.0739C129.998 47.0687 130.895 48.3056 130.895 50.7846V59.9948ZM110.884 59.8307C108.645 59.8833 106.477 59.0596 104.851 57.5393C104.031 56.7726 103.386 55.8416 102.96 54.8087C102.533 53.7758 102.335 52.6648 102.379 51.5501C102.336 50.4317 102.536 49.3171 102.964 48.281C103.393 47.245 104.041 46.3114 104.864 45.5428C105.648 44.7913 106.574 44.1998 107.589 43.8021C108.604 43.4045 109.689 43.2084 110.781 43.2253C111.978 43.2335 113.163 43.476 114.265 43.9387C115.425 44.426 116.467 45.1532 117.319 46.0714L115.013 49.1206C114.516 48.5251 113.895 48.0427 113.192 47.7065C112.488 47.3703 111.72 47.1883 110.939 47.1729C109.827 47.1595 108.753 47.5742 107.945 48.329C107.52 48.7448 107.19 49.2454 106.977 49.7973C106.764 50.3492 106.673 50.9397 106.709 51.5293C106.675 52.1175 106.77 52.7061 106.986 53.2551C107.202 53.8041 107.536 54.3007 107.963 54.7113C108.758 55.4519 109.812 55.8589 110.905 55.8467C111.7 55.8101 112.475 55.5881 113.167 55.1989C113.858 54.8097 114.447 54.2643 114.884 53.6073L117.483 56.6096C115.462 58.7553 113.26 59.8281 110.876 59.8281L110.884 59.8307ZM94.8493 60H99.2874L99.3112 49.8107C99.3905 48.0515 98.7656 46.3321 97.5717 45.0246C97.0347 44.4532 96.3813 44.0006 95.6545 43.6968C94.9277 43.3929 94.144 43.2446 93.355 43.2617C92.5008 43.2754 91.659 43.4661 90.8841 43.8213C90.1092 44.1765 89.4183 44.6885 88.8562 45.324V37.3898H84.4233V59.9948H88.8535V50.9122C88.8148 50.3934 88.8826 49.8722 89.0529 49.38C89.2232 48.8877 89.4924 48.4346 89.8445 48.0478C90.1437 47.739 90.5033 47.4936 90.9016 47.3266C91.2999 47.1596 91.7284 47.0745 92.1611 47.0765C93.9532 47.0713 94.8493 48.3091 94.8493 50.7898V60ZM74.8459 59.8333C72.6075 59.8876 70.4385 59.0637 68.8133 57.5419C67.9923 56.7759 67.3468 55.845 66.9204 54.812C66.494 53.7789 66.2965 52.6675 66.3412 51.5527C66.3007 50.434 66.5024 49.3196 66.9328 48.284C67.3632 47.2485 68.0124 46.3157 68.837 45.548C69.6212 44.7964 70.5476 44.2049 71.5633 43.8072C72.5789 43.4096 73.664 43.2136 74.7563 43.2305C75.9534 43.2361 77.1372 43.4787 78.2378 43.9439C79.4066 44.426 80.4552 45.1538 81.3108 46.0766L79.0364 49.1154C78.5325 48.5008 77.8922 48.009 77.1651 47.678C76.4784 47.3491 75.7276 47.1714 74.9645 47.1572C73.8522 47.1442 72.7781 47.5577 71.968 48.3108C71.5413 48.7258 71.209 49.2259 70.9932 49.7777C70.7773 50.3295 70.6829 50.9204 70.7161 51.5111C70.6809 52.0994 70.7747 52.6884 70.9912 53.2376C71.2078 53.7868 71.5418 54.2833 71.9706 54.6931C72.7616 55.4346 73.8136 55.8427 74.9039 55.831C75.7 55.7955 76.4762 55.574 77.1688 55.1847C77.8615 54.7955 78.4509 54.2495 78.8888 53.5916L81.5005 56.5784C79.4466 58.7293 77.2275 59.8056 74.8433 59.8073L74.8459 59.8333ZM52.4891 53.1359H64.0694L64.0562 50.683C64.1107 49.6559 63.9334 48.6298 63.5373 47.6787C63.1412 46.7275 62.5362 45.8753 61.766 45.1834C60.5633 44.152 59.084 43.4868 57.5068 43.2683C55.9297 43.0498 54.3222 43.2874 52.8788 43.9522C51.4354 44.6171 50.2178 45.6809 49.3731 47.0149C48.5285 48.3489 48.0931 49.8961 48.1195 51.4694C48.0648 52.5855 48.2463 53.7007 48.6525 54.7435C49.0586 55.7864 49.6804 56.7342 50.4782 57.5262C51.2716 58.2851 52.211 58.879 53.2409 59.2726C54.2708 59.6662 55.3702 59.8516 56.474 59.8177C57.6453 59.8271 58.8066 59.6039 59.8891 59.1616C60.9715 58.7192 61.953 58.0666 62.7754 57.2424L60.2954 54.5265C59.8091 55.0489 59.2148 55.4619 58.5526 55.7373C57.8905 56.0127 57.1762 56.1442 56.4581 56.1227C55.5191 56.138 54.6011 55.847 53.8464 55.2946C53.4841 55.0442 53.177 54.7238 52.9437 54.3528C52.7105 53.9817 52.5558 53.5678 52.4891 53.1359ZM45.2547 58.9532C44.3679 59.5143 43.34 59.8192 42.2871 59.8333C41.5497 59.8551 40.816 59.722 40.1345 59.4428C39.4531 59.1636 38.8393 58.7447 38.3339 58.2137C37.8192 57.6732 37.4217 57.0346 37.1656 56.337C36.9096 55.6394 36.8004 54.8975 36.8448 54.1567V46.9593H35V43.4935H36.8448V37.4106H41.3015V43.4935H45.1387V46.9567H41.2935V53.964C41.261 54.4886 41.4326 55.0056 41.7732 55.4092C41.9085 55.5721 42.0786 55.7033 42.2714 55.7933C42.4642 55.8834 42.6748 55.9301 42.888 55.93C43.3073 55.9276 43.7195 55.8224 44.0875 55.6238C44.4554 55.4251 44.7678 55.1394 44.9964 54.7921L45.26 55.2946L46.6436 57.9403C46.2181 58.3254 45.7526 58.665 45.2547 58.9532ZM52 50.5C52 48.0147 54.0147 46 56.5 46C58.9853 46 61 48.0147 61 50.5H52Z" fill="white"/>
</g>
</svg>
