<svg width="196" height="100" viewBox="0 0 196 100" fill="none" xmlns="http://www.w3.org/2000/svg">
<g opacity="0.6">
<g clip-path="url(#clip0_6080_8300)">
<path d="M107.031 54.271C106.592 53.2601 106.358 52.1045 106.358 50.8044C106.358 44.421 112.032 41.6087 117.8 41.6087H118.183C119.936 41.6087 126.947 42.0511 127.681 49.0979L120.701 49.8564C120.637 47.9286 120.223 45.9064 117.864 45.9064C114.836 45.9064 114.613 48.4027 114.613 50.7728V50.8361C114.613 53.206 114.868 55.7024 117.864 55.7024C119.426 55.7024 120.828 54.8176 120.828 52.9216H127.776L127.744 53.522C126.597 59.1153 121.466 60 117.8 60C113.431 60 109.091 58.3869 107.272 54.8118V59.4466H94.5576V54.271H96.9596V48.873C96.9596 47.2538 95.7746 46.5234 94.2693 46.5234C92.3476 46.5234 90.9064 47.9205 90.9064 49.8257V54.3026H93.3725V59.4782H80.3693V54.3026H82.7075V46.5234H80.3695V41.3478H90.6181V44.9358C90.8104 44.777 90.9704 44.5865 91.0986 44.4277C92.9563 42.3005 95.102 41.5384 97.9204 41.5384C101.892 41.5384 105.095 43.126 105.095 47.4761V54.3026V54.271H107.031ZM63 41.5075V36H79.4553V41.5075H76.3481V54.3796H79.4553V59.4782H63V54.3796H66.0753V41.5077H63V41.5075ZM130.127 59.6085C128.54 59.6085 127.254 58.3237 127.254 56.739C127.254 55.154 128.54 53.8694 130.127 53.8694C131.714 53.8694 133 55.1542 133 56.7391C133 58.3239 131.714 59.6087 130.127 59.6087V59.6085Z" fill="#242529"/>
</g>
</g>
<defs>
<clipPath id="clip0_6080_8300">
<rect width="70" height="24" fill="white" transform="translate(63 36)"/>
</clipPath>
</defs>
</svg>
