<svg width="171" height="32" viewBox="0 0 171 32" fill="none" xmlns="http://www.w3.org/2000/svg">
<g clip-path="url(#clip0_6837_28691)">
<mask id="mask0_6837_28691" style="mask-type:luminance" maskUnits="userSpaceOnUse" x="0" y="-2" width="182" height="36">
<path d="M182 -2V34H0V-2H182Z" fill="white"/>
</mask>
<g mask="url(#mask0_6837_28691)">
<mask id="mask1_6837_28691" style="mask-type:luminance" maskUnits="userSpaceOnUse" x="0" y="1" width="19" height="19">
<path d="M18.2809 1L7.12092 16.1824C6.34531 17.1676 6.14839 18.4 6.56031 19.3183L6.50203 19.2899C6.08409 19.0885 5.68221 18.8737 5.29642 18.6453C1.58513 16.4561 -0.498577 13.0933 0.379514 10.1662C0.596658 9.4493 0.975636 8.79293 1.48667 8.24864L7.73579 1H18.2809Z" fill="white"/>
</mask>
<g mask="url(#mask1_6837_28691)">
<path d="M0.179688 1H18.2809V19.3183H0.179688V1Z" fill="url(#paint0_linear_6837_28691)"/>
</g>
<mask id="mask2_6837_28691" style="mask-type:luminance" maskUnits="userSpaceOnUse" x="4" y="15" width="18" height="16">
<path d="M19.0447 15.9312V15.9494C19.973 15.9778 20.7768 16.2981 21.3113 16.9305C22.328 18.1366 22.0828 20.1393 20.8652 21.9636V21.9778L14.7768 31H4.32812C4.32812 31 5.92402 28.8171 7.57257 26.5048L8.00912 25.8911C8.88044 24.6634 9.72836 23.4501 10.3239 22.5561L10.5127 22.2703C10.6618 22.0427 10.7894 21.8423 10.8907 21.6758C12.1445 19.592 11.9577 17.5446 10.6777 15.9312H19.0447Z" fill="white"/>
</mask>
<g mask="url(#mask2_6837_28691)">
<path d="M4.32812 15.9312H21.946V31H4.32812V15.9312Z" fill="url(#paint1_linear_6837_28691)"/>
</g>
<mask id="mask3_6837_28691" style="mask-type:luminance" maskUnits="userSpaceOnUse" x="27" y="7" width="13" height="16">
<path d="M34.0172 7.14136C37.4146 7.14136 39.6499 9.03626 39.6957 11.7776H36.5972C36.4791 10.5711 35.5363 9.86324 33.9907 9.86324C32.4113 9.86324 31.5385 10.5929 31.5385 11.5854C31.5168 12.6897 32.6259 13.186 33.9497 13.4948L35.3217 13.8257C37.974 14.4265 39.8885 15.7862 39.903 18.35C39.903 21.1691 37.704 22.9716 33.9786 22.9716C30.2532 22.9716 27.912 21.2422 27.8203 17.9146H30.9549C31.0586 19.4544 32.2666 20.2375 33.9424 20.2375C35.5821 20.2375 36.6407 19.4713 36.6478 18.3427C36.6478 17.3065 35.7171 16.8248 34.0558 16.4186L32.3945 15.9979C29.8097 15.3727 28.223 14.081 28.2303 11.8019C28.2158 9.00704 30.6656 7.14136 34.0172 7.14136Z" fill="white"/>
</mask>
<g mask="url(#mask3_6837_28691)">
<path d="M27.8203 7.14136H39.903V22.9716H27.8203V7.14136Z" fill="black"/>
</g>
<mask id="mask4_6837_28691" style="mask-type:luminance" maskUnits="userSpaceOnUse" x="41" y="11" width="11" height="12">
<path d="M47.0707 11.0479C49.6193 11.0479 51.9293 12.2057 51.9293 14.9567V22.7405H48.908V21.1351H48.8188C48.2594 22.2103 47.1647 22.9546 45.4745 22.9546C43.2899 22.9643 41.6719 21.8065 41.6719 19.5224C41.6719 16.9441 43.707 16.1778 45.9711 15.9662C47.9604 15.7716 48.7441 15.6719 48.7441 14.93V14.8838C48.7441 13.9375 48.1268 13.3878 47.0562 13.3878C45.9157 13.3878 45.2381 13.9521 45.0211 14.7184L42.0867 14.4751C42.5255 12.3711 44.3291 11.0479 47.0707 11.0479ZM48.7658 17.4038C48.3848 17.6592 47.2539 17.8246 46.5595 17.9219C45.4431 18.08 44.7052 18.5227 44.7052 19.4251C44.7052 20.3275 45.4045 20.763 46.3931 20.763C47.7748 20.7532 48.7658 19.8289 48.7658 18.62V17.4038Z" fill="white"/>
</mask>
<g mask="url(#mask4_6837_28691)">
<path d="M41.6719 11.0479H51.9293V22.9547H41.6719V11.0479Z" fill="black"/>
</g>
<mask id="mask5_6837_28691" style="mask-type:luminance" maskUnits="userSpaceOnUse" x="53" y="6" width="9" height="17">
<path d="M59.0598 6.63049C59.818 6.63281 60.5723 6.7392 61.3022 6.94671L60.7428 9.35241C60.4127 9.247 60.069 9.19125 59.7228 9.18695C58.7921 9.18695 58.4786 9.64427 58.4786 10.4275V11.201H60.75L60.7404 13.6067H58.469V22.7453H55.3055V13.6067H53.6875V11.201H55.3055V10.3667C55.3055 7.85643 56.9065 6.63049 59.0598 6.63049Z" fill="white"/>
</mask>
<g mask="url(#mask5_6837_28691)">
<path d="M53.6875 6.63049H61.3022V22.7453H53.6875V6.63049Z" fill="black"/>
</g>
<mask id="mask6_6837_28691" style="mask-type:luminance" maskUnits="userSpaceOnUse" x="62" y="11" width="11" height="12">
<path d="M67.5693 11.0527C70.5954 11.0527 72.9488 12.9987 72.9488 16.9149V17.7954H65.1605C65.1605 19.5176 66.166 20.5757 67.7525 20.5757C68.8111 20.5757 69.631 20.1184 69.9516 19.2378L72.8861 19.4324C72.44 21.5754 70.5327 22.9643 67.6995 22.9643C64.1767 22.9716 62.0234 20.6876 62.0234 17.0268C62.0234 13.4632 64.2057 11.0527 67.5693 11.0527ZM67.6272 13.4438C66.9892 13.4288 66.3714 13.6694 65.9091 14.113C65.4468 14.5567 65.1775 15.167 65.1605 15.8105H69.9661C69.9789 15.4969 69.9274 15.1839 69.8145 14.8914C69.7016 14.5989 69.5299 14.333 69.3101 14.1107C69.0905 13.8884 68.8275 13.7143 68.5379 13.5996C68.2483 13.4848 67.9381 13.4317 67.6272 13.4438Z" fill="white"/>
</mask>
<g mask="url(#mask6_6837_28691)">
<path d="M62.0234 11.0527H72.9488V22.9643H62.0234V11.0527Z" fill="black"/>
</g>
<mask id="mask7_6837_28691" style="mask-type:luminance" maskUnits="userSpaceOnUse" x="75" y="7" width="14" height="16">
<path d="M82.1318 7.13892C85.6642 7.13892 88.3312 9.18213 88.7552 12.7335L85.4929 12.7433C85.2516 11.0405 83.9739 10.0213 82.2065 10.0213C79.8435 10.0213 78.2956 11.8481 78.2956 15.0492C78.2956 18.3403 79.8676 20.077 82.1848 20.077C83.9067 20.077 85.1872 19.1308 85.4929 17.4841L88.7552 17.4987C88.4059 20.3324 86.0428 22.9546 82.1318 22.9546C78.0496 22.9546 75.0234 20.0673 75.0234 15.0467C75.0234 10.0262 78.1002 7.13892 82.1318 7.13892Z" fill="white"/>
</mask>
<g mask="url(#mask7_6837_28691)">
<path d="M75.0234 7.13892H88.7552V22.9546H75.0234V7.13892Z" fill="black"/>
</g>
<mask id="mask8_6837_28691" style="mask-type:luminance" maskUnits="userSpaceOnUse" x="91" y="11" width="11" height="12">
<path d="M94.3921 11.201V17.9729C94.3921 19.3327 95.1728 20.1815 96.3738 20.1815C97.5143 20.1815 98.5629 19.3691 98.5563 17.8221V11.201H101.729V22.7453H98.684V20.6486H98.5657C98.0518 22.001 96.8149 22.8962 95.0933 22.8962C92.7907 22.8962 91.2358 21.2494 91.2188 18.5518V11.201H94.3921Z" fill="white"/>
</mask>
<g mask="url(#mask8_6837_28691)">
<path d="M91.2188 11.201H101.729V22.8962H91.2188V11.201Z" fill="black"/>
</g>
<mask id="mask9_6837_28691" style="mask-type:luminance" maskUnits="userSpaceOnUse" x="104" y="11" width="8" height="12">
<path d="M110.415 11.026C110.751 11.0276 111.085 11.0651 111.413 11.1379V13.9911C110.975 13.8764 110.525 13.8184 110.072 13.8184C108.672 13.8184 107.645 14.7914 107.645 16.2168V22.7454H104.469V11.2011H107.546V13.2152H107.667C108.083 11.7873 109.135 11.026 110.415 11.026Z" fill="white"/>
</mask>
<g mask="url(#mask9_6837_28691)">
<path d="M104.469 11.026H111.413V22.7454H104.469V11.026Z" fill="black"/>
</g>
<mask id="mask10_6837_28691" style="mask-type:luminance" maskUnits="userSpaceOnUse" x="113" y="11" width="8" height="12">
<path d="M119.204 11.026C119.539 11.0276 119.874 11.0651 120.202 11.1379V13.9911C119.764 13.8764 119.314 13.8184 118.861 13.8184C117.461 13.8184 116.433 14.7914 116.433 16.2168V22.7454H113.258V11.2011H116.335V13.2152H116.455C116.872 11.7873 117.924 11.026 119.204 11.026Z" fill="white"/>
</mask>
<g mask="url(#mask10_6837_28691)">
<path d="M113.258 11.026H120.202V22.7454H113.258V11.026Z" fill="black"/>
</g>
<mask id="mask11_6837_28691" style="mask-type:luminance" maskUnits="userSpaceOnUse" x="121" y="11" width="11" height="12">
<path d="M126.593 11.0527C129.618 11.0527 131.972 12.9987 131.972 16.9149V17.7954H124.181C124.181 19.5176 125.187 20.5757 126.774 20.5757C127.833 20.5757 128.652 20.1184 128.973 19.2378L131.907 19.4324C131.461 21.5754 129.554 22.9643 126.721 22.9643C123.198 22.9716 121.047 20.6876 121.047 17.0268C121.047 13.4632 123.229 11.0527 126.593 11.0527ZM126.651 13.4438C126.013 13.4288 125.395 13.6694 124.933 14.113C124.47 14.5567 124.201 15.167 124.184 15.8105H128.989C129.002 15.4969 128.951 15.1839 128.838 14.8914C128.725 14.5989 128.554 14.333 128.333 14.1107C128.114 13.8884 127.851 13.7143 127.561 13.5996C127.271 13.4848 126.962 13.4317 126.651 13.4438Z" fill="white"/>
</mask>
<g mask="url(#mask11_6837_28691)">
<path d="M121.047 11.0527H131.972V22.9643H121.047V11.0527Z" fill="black"/>
</g>
<mask id="mask12_6837_28691" style="mask-type:luminance" maskUnits="userSpaceOnUse" x="134" y="11" width="11" height="12">
<path d="M140.862 11.0479C143.247 11.0479 144.811 12.7019 144.811 15.3922V22.7454H141.623V15.9662C141.623 14.5529 140.864 13.7114 139.589 13.7114C138.313 13.7114 137.419 14.5822 137.419 16.0708L137.423 22.7454H134.25V11.2011H137.283V13.237H137.419C137.932 11.8918 139.162 11.0479 140.862 11.0479Z" fill="white"/>
</mask>
<g mask="url(#mask12_6837_28691)">
<path d="M134.25 11.0479H144.811V22.7454H134.25V11.0479Z" fill="black"/>
</g>
<mask id="mask13_6837_28691" style="mask-type:luminance" maskUnits="userSpaceOnUse" x="147" y="11" width="11" height="12">
<path d="M152.665 11.0527C155.653 11.0527 157.656 12.804 157.791 15.4725H154.794C154.623 14.3219 153.877 13.5484 152.715 13.5484C151.239 13.5484 150.273 14.7962 150.273 16.9757C150.273 19.1551 151.238 20.4394 152.715 20.4394C153.803 20.4394 154.608 19.7486 154.794 18.5154H157.784C157.634 21.1691 155.72 22.9716 152.672 22.9716C149.154 22.9716 147.047 20.5295 147.047 17.0194C147.047 13.4802 149.192 11.0527 152.665 11.0527Z" fill="white"/>
</mask>
<g mask="url(#mask13_6837_28691)">
<path d="M147.047 11.0527H157.791V22.9716H147.047V11.0527Z" fill="black"/>
</g>
<mask id="mask14_6837_28691" style="mask-type:luminance" maskUnits="userSpaceOnUse" x="159" y="11" width="12" height="17">
<path d="M167.346 11.1986L170.707 11.2132L166.259 23.9908C165.609 25.854 164.358 27.0727 161.998 27.0727C161.317 27.0894 160.639 26.9781 159.999 26.7443L160.722 24.3532C161.839 24.6987 162.637 24.6476 163.054 23.5651L163.24 23.0786L159.141 11.2035H162.478L164.833 19.6756H164.953L167.346 11.1986Z" fill="white"/>
</mask>
<g mask="url(#mask14_6837_28691)">
<path d="M159.141 11.1986H170.707V27.0743H159.141V11.1986Z" fill="black"/>
</g>
</g>
</g>
<defs>
<linearGradient id="paint0_linear_6837_28691" x1="0.359601" y1="10.1581" x2="18.2809" y2="10.1581" gradientUnits="userSpaceOnUse">
<stop offset="0.01" stop-color="#B38FFC"/>
<stop offset="0.04" stop-color="#AD8EFC"/>
<stop offset="0.23" stop-color="#8A86FC"/>
<stop offset="0.42" stop-color="#6E80FB"/>
<stop offset="0.61" stop-color="#5B7BFB"/>
<stop offset="0.8" stop-color="#4F79FB"/>
<stop offset="1" stop-color="#4A77FB"/>
</linearGradient>
<linearGradient id="paint1_linear_6837_28691" x1="4.50423" y1="23.4697" x2="21.9382" y2="23.4697" gradientUnits="userSpaceOnUse">
<stop offset="0.01" stop-color="#B38FFC"/>
<stop offset="0.04" stop-color="#AD8EFC"/>
<stop offset="0.23" stop-color="#8A86FC"/>
<stop offset="0.42" stop-color="#6E80FB"/>
<stop offset="0.61" stop-color="#5B7BFB"/>
<stop offset="0.8" stop-color="#4F79FB"/>
<stop offset="1" stop-color="#4A77FB"/>
</linearGradient>
<clipPath id="clip0_6837_28691">
<rect width="171" height="32" fill="white"/>
</clipPath>
</defs>
</svg>
