<svg width="100" height="22" viewBox="0 0 100 22" fill="none" xmlns="http://www.w3.org/2000/svg">
<mask id="path-1-inside-1_22_7856" fill="white">
<path fill-rule="evenodd" clip-rule="evenodd" d="M12.1656 19.3149C11.5814 19.9174 10.8797 20.3693 10.0603 20.6706C9.24086 20.9718 8.32817 21.1225 7.32216 21.1225C5.21278 21.1225 3.57398 20.5027 2.40572 19.2632C1.23745 18.0237 0.65332 16.285 0.65332 14.0471C0.65332 11.8263 1.23745 10.0919 2.40572 8.84383C3.57398 7.59573 5.21278 6.97169 7.32216 6.97169C9.05833 6.97169 10.4943 7.42788 11.6301 8.34029L10.6079 9.78635C9.78037 9.11496 8.68514 8.77927 7.32216 8.77927C5.69956 8.77927 4.4664 9.23116 3.62265 10.135C2.7789 11.0387 2.35704 12.3428 2.35704 14.0471C2.35704 15.7686 2.7789 17.0769 3.62265 17.9721C4.4664 18.8673 5.69956 19.3149 7.32216 19.3149C8.89607 19.3149 10.113 18.8759 10.973 17.9979L12.1656 19.3149ZM15.5974 14.0729C15.5974 11.8521 16.1409 10.1177 17.228 8.86965C18.3152 7.62155 19.8323 6.99751 21.7794 6.99751V8.80509C20.3191 8.80509 19.2076 9.25698 18.445 10.1608C17.6824 11.0646 17.3011 12.3686 17.3011 14.0729V20.9933H15.5974V14.0729ZM30.8821 6.97169C32.9915 6.97169 34.6303 7.59573 35.7986 8.84383C36.9668 10.0919 37.551 11.8263 37.551 14.0471V17.1458C37.551 17.4384 37.4861 17.8129 37.3562 18.2691C37.2264 18.7253 36.9303 19.1642 36.4679 19.586C36.0054 20.0078 35.3361 20.3693 34.4599 20.6706C33.5837 20.9718 32.3911 21.1225 30.8821 21.1225C29.3731 21.1225 28.1805 20.9718 27.3043 20.6706C26.4281 20.3693 25.7588 20.0078 25.2964 19.586C24.8339 19.1642 24.5378 18.7253 24.408 18.2691C24.2782 17.8129 24.2133 17.4384 24.2133 17.1458C24.2133 16.0957 24.3674 15.2693 24.6757 14.6668C24.984 14.0643 25.3978 13.6124 25.917 13.3111C26.4362 13.0099 27.0488 12.8162 27.7546 12.7301C28.4604 12.644 29.219 12.601 30.0303 12.601H35.7255C35.4984 11.3615 34.9792 10.4147 34.1679 9.76053C33.3566 9.10635 32.2613 8.77927 30.8821 8.77927C29.4867 8.77927 28.359 9.13218 27.499 9.838L26.4525 8.41775C27.6045 7.45371 29.081 6.97169 30.8821 6.97169ZM35.8472 14.4086H30.8821C29.795 14.4086 28.9229 14.4387 28.2657 14.499C27.6086 14.5592 27.1056 14.684 26.7567 14.8734C26.4078 15.0628 26.1807 15.3382 26.0752 15.6997C25.9697 16.0612 25.917 16.5433 25.917 17.1458C25.917 17.5417 26.063 17.8774 26.3551 18.1529C26.6472 18.4283 27.0285 18.6521 27.499 18.8243C27.9696 18.9964 28.501 19.1212 29.0932 19.1987C29.6855 19.2761 30.2818 19.3149 30.8821 19.3149C31.4825 19.3149 32.0788 19.2761 32.671 19.1987C33.2633 19.1212 33.7947 18.9964 34.2652 18.8243C34.7358 18.6521 35.1171 18.4283 35.4091 18.1529C35.7012 17.8774 35.8472 17.5417 35.8472 17.1458V14.4086ZM45.6314 13.1949C46.1669 13.3154 46.7105 13.4489 47.2621 13.5952C47.8138 13.7415 48.3128 13.9567 48.759 14.2407C49.2052 14.5248 49.5662 14.8992 49.8421 15.364C50.1179 15.8288 50.2558 16.4227 50.2558 17.1458C50.2558 18.3853 49.8258 19.3579 48.9659 20.0637C48.1059 20.7696 46.9376 21.1225 45.4611 21.1225C43.9683 21.1225 42.7919 20.7696 41.9319 20.0637C41.072 19.3579 40.642 18.3853 40.642 17.1458H42.3457C42.3457 17.5934 42.439 17.9592 42.6256 18.2432C42.8122 18.5273 43.0556 18.7511 43.3558 18.9146C43.6559 19.0782 43.9926 19.1901 44.3658 19.2503C44.739 19.3106 45.1041 19.3407 45.4611 19.3407C45.818 19.3407 46.1791 19.3106 46.5441 19.2503C46.9092 19.1901 47.2419 19.0782 47.542 18.9146C47.8422 18.7511 48.0897 18.5273 48.2844 18.2432C48.4791 17.9592 48.5764 17.5934 48.5764 17.1458C48.5764 16.8359 48.5318 16.5777 48.4426 16.3711C48.3533 16.1645 48.187 15.9795 47.9436 15.8159C47.7002 15.6524 47.3636 15.5061 46.9336 15.3769C46.5036 15.2478 45.9478 15.1058 45.2664 14.9509C44.7309 14.8304 44.1873 14.6926 43.6357 14.5377C43.084 14.3828 42.585 14.1633 42.1388 13.8792C41.6926 13.5952 41.3316 13.2208 41.0557 12.7559C40.7799 12.2911 40.642 11.6886 40.642 10.9484C40.642 9.70888 41.072 8.73624 41.9319 8.03042C42.7919 7.3246 43.9683 6.97169 45.4611 6.97169C46.9376 6.97169 48.1059 7.3246 48.9659 8.03042C49.8258 8.73624 50.2558 9.70888 50.2558 10.9484H48.5764C48.5764 10.5008 48.4791 10.135 48.2844 9.85091C48.0897 9.56686 47.8422 9.34737 47.542 9.19243C47.2419 9.0375 46.9092 8.9299 46.5441 8.86965C46.1791 8.8094 45.818 8.77927 45.4611 8.77927C45.1041 8.77927 44.739 8.8094 44.3658 8.86965C43.9926 8.9299 43.6559 9.0375 43.3558 9.19243C43.0556 9.34737 42.8122 9.56686 42.6256 9.85091C42.439 10.135 42.3457 10.5008 42.3457 10.9484C42.3457 11.241 42.3822 11.4906 42.4552 11.6972C42.5282 11.9038 42.6824 12.0889 42.9177 12.2524C43.1529 12.416 43.4856 12.5752 43.9156 12.7301C44.3455 12.8851 44.9175 13.04 45.6314 13.1949ZM57.7035 13.1949C58.239 13.3154 58.7825 13.4489 59.3342 13.5952C59.8859 13.7415 60.3848 13.9567 60.831 14.2407C61.2772 14.5248 61.6383 14.8992 61.9141 15.364C62.19 15.8288 62.3279 16.4227 62.3279 17.1458C62.3279 18.3853 61.8979 19.3579 61.0379 20.0637C60.1779 20.7696 59.0097 21.1225 57.5331 21.1225C56.0403 21.1225 54.864 20.7696 54.004 20.0637C53.144 19.3579 52.714 18.3853 52.714 17.1458H54.4178C54.4178 17.5934 54.5111 17.9592 54.6976 18.2432C54.8842 18.5273 55.1276 18.7511 55.4278 18.9146C55.728 19.0782 56.0647 19.1901 56.4379 19.2503C56.8111 19.3106 57.1761 19.3407 57.5331 19.3407C57.8901 19.3407 58.2511 19.3106 58.6162 19.2503C58.9813 19.1901 59.3139 19.0782 59.6141 18.9146C59.9143 18.7511 60.1617 18.5273 60.3564 18.2432C60.5511 17.9592 60.6485 17.5934 60.6485 17.1458C60.6485 16.8359 60.6039 16.5777 60.5146 16.3711C60.4254 16.1645 60.2591 15.9795 60.0157 15.8159C59.7723 15.6524 59.4356 15.5061 59.0056 15.3769C58.5756 15.2478 58.0199 15.1058 57.3384 14.9509C56.803 14.8304 56.2594 14.6926 55.7077 14.5377C55.156 14.3828 54.6571 14.1633 54.2109 13.8792C53.7647 13.5952 53.4036 13.2208 53.1278 12.7559C52.852 12.2911 52.714 11.6886 52.714 10.9484C52.714 9.70888 53.144 8.73624 54.004 8.03042C54.864 7.3246 56.0403 6.97169 57.5331 6.97169C59.0097 6.97169 60.1779 7.3246 61.0379 8.03042C61.8979 8.73624 62.3279 9.70888 62.3279 10.9484H60.6485C60.6485 10.5008 60.5511 10.135 60.3564 9.85091C60.1617 9.56686 59.9143 9.34737 59.6141 9.19243C59.3139 9.0375 58.9813 8.9299 58.6162 8.86965C58.2511 8.8094 57.8901 8.77927 57.5331 8.77927C57.1761 8.77927 56.8111 8.8094 56.4379 8.86965C56.0647 8.9299 55.728 9.0375 55.4278 9.19243C55.1276 9.34737 54.8842 9.56686 54.6976 9.85091C54.5111 10.135 54.4178 10.5008 54.4178 10.9484C54.4178 11.241 54.4543 11.4906 54.5273 11.6972C54.6003 11.9038 54.7544 12.0889 54.9897 12.2524C55.225 12.416 55.5576 12.5752 55.9876 12.7301C56.4176 12.8851 56.9896 13.04 57.7035 13.1949ZM70.8221 21.1225C69.1022 21.1225 67.7635 20.5027 66.8062 19.2632C65.8489 18.0237 65.3702 16.285 65.3702 14.0471V7.25574H67.0739V14.0471C67.0739 14.5463 67.1145 15.0972 67.1956 15.6997C67.2768 16.3023 67.4512 16.8746 67.7189 17.4169C67.9866 17.9592 68.3679 18.4111 68.8628 18.7726C69.3577 19.1341 70.0108 19.3149 70.8221 19.3149C71.6334 19.3149 72.2865 19.1341 72.7814 18.7726C73.2763 18.4111 73.6576 17.9592 73.9253 17.4169C74.193 16.8746 74.3675 16.3023 74.4486 15.6997C74.5297 15.0972 74.5703 14.5463 74.5703 14.0471V7.25574H76.274V14.0471C76.274 16.285 75.7953 18.0237 74.838 19.2632C73.8807 20.5027 72.5421 21.1225 70.8221 21.1225ZM82.1883 20.9933H80.4846V0.877563H82.1883V20.9933ZM92.6784 6.97169C94.7877 6.97169 96.4265 7.59573 97.5948 8.84383C98.7631 10.0919 99.3472 11.8263 99.3472 14.0471V17.1458C99.3472 17.4384 99.2823 17.8129 99.1525 18.2691C99.0227 18.7253 98.7266 19.1642 98.2641 19.586C97.8017 20.0078 97.1324 20.3693 96.2562 20.6706C95.38 20.9718 94.1874 21.1225 92.6784 21.1225C91.1693 21.1225 89.9768 20.9718 89.1006 20.6706C88.2244 20.3693 87.555 20.0078 87.0926 19.586C86.6302 19.1642 86.334 18.7253 86.2042 18.2691C86.0744 17.8129 86.0095 17.4384 86.0095 17.1458C86.0095 16.0957 86.1637 15.2693 86.472 14.6668C86.7803 14.0643 87.194 13.6124 87.7132 13.3111C88.2325 13.0099 88.845 12.8162 89.5508 12.7301C90.2567 12.644 91.0152 12.601 91.8265 12.601H97.5218C97.2946 11.3615 96.7754 10.4147 95.9641 9.76053C95.1528 9.10635 94.0576 8.77927 92.6784 8.77927C91.2829 8.77927 90.1552 9.13218 89.2953 9.838L88.2487 8.41775C89.4007 7.45371 90.8773 6.97169 92.6784 6.97169ZM97.6435 14.4086H92.6784C91.5912 14.4086 90.7191 14.4387 90.0619 14.499C89.4048 14.5592 88.9018 14.684 88.5529 14.8734C88.2041 15.0628 87.9769 15.3382 87.8714 15.6997C87.766 16.0612 87.7132 16.5433 87.7132 17.1458C87.7132 17.5417 87.8593 17.8774 88.1513 18.1529C88.4434 18.4283 88.8247 18.6521 89.2953 18.8243C89.7658 18.9964 90.2972 19.1212 90.8895 19.1987C91.4817 19.2761 92.078 19.3149 92.6784 19.3149C93.2787 19.3149 93.875 19.2761 94.4673 19.1987C95.0595 19.1212 95.5909 18.9964 96.0615 18.8243C96.532 18.6521 96.9133 18.4283 97.2054 18.1529C97.4974 17.8774 97.6435 17.5417 97.6435 17.1458V14.4086Z"/>
</mask>
<path fill-rule="evenodd" clip-rule="evenodd" d="M12.1656 19.3149C11.5814 19.9174 10.8797 20.3693 10.0603 20.6706C9.24086 20.9718 8.32817 21.1225 7.32216 21.1225C5.21278 21.1225 3.57398 20.5027 2.40572 19.2632C1.23745 18.0237 0.65332 16.285 0.65332 14.0471C0.65332 11.8263 1.23745 10.0919 2.40572 8.84383C3.57398 7.59573 5.21278 6.97169 7.32216 6.97169C9.05833 6.97169 10.4943 7.42788 11.6301 8.34029L10.6079 9.78635C9.78037 9.11496 8.68514 8.77927 7.32216 8.77927C5.69956 8.77927 4.4664 9.23116 3.62265 10.135C2.7789 11.0387 2.35704 12.3428 2.35704 14.0471C2.35704 15.7686 2.7789 17.0769 3.62265 17.9721C4.4664 18.8673 5.69956 19.3149 7.32216 19.3149C8.89607 19.3149 10.113 18.8759 10.973 17.9979L12.1656 19.3149ZM15.5974 14.0729C15.5974 11.8521 16.1409 10.1177 17.228 8.86965C18.3152 7.62155 19.8323 6.99751 21.7794 6.99751V8.80509C20.3191 8.80509 19.2076 9.25698 18.445 10.1608C17.6824 11.0646 17.3011 12.3686 17.3011 14.0729V20.9933H15.5974V14.0729ZM30.8821 6.97169C32.9915 6.97169 34.6303 7.59573 35.7986 8.84383C36.9668 10.0919 37.551 11.8263 37.551 14.0471V17.1458C37.551 17.4384 37.4861 17.8129 37.3562 18.2691C37.2264 18.7253 36.9303 19.1642 36.4679 19.586C36.0054 20.0078 35.3361 20.3693 34.4599 20.6706C33.5837 20.9718 32.3911 21.1225 30.8821 21.1225C29.3731 21.1225 28.1805 20.9718 27.3043 20.6706C26.4281 20.3693 25.7588 20.0078 25.2964 19.586C24.8339 19.1642 24.5378 18.7253 24.408 18.2691C24.2782 17.8129 24.2133 17.4384 24.2133 17.1458C24.2133 16.0957 24.3674 15.2693 24.6757 14.6668C24.984 14.0643 25.3978 13.6124 25.917 13.3111C26.4362 13.0099 27.0488 12.8162 27.7546 12.7301C28.4604 12.644 29.219 12.601 30.0303 12.601H35.7255C35.4984 11.3615 34.9792 10.4147 34.1679 9.76053C33.3566 9.10635 32.2613 8.77927 30.8821 8.77927C29.4867 8.77927 28.359 9.13218 27.499 9.838L26.4525 8.41775C27.6045 7.45371 29.081 6.97169 30.8821 6.97169ZM35.8472 14.4086H30.8821C29.795 14.4086 28.9229 14.4387 28.2657 14.499C27.6086 14.5592 27.1056 14.684 26.7567 14.8734C26.4078 15.0628 26.1807 15.3382 26.0752 15.6997C25.9697 16.0612 25.917 16.5433 25.917 17.1458C25.917 17.5417 26.063 17.8774 26.3551 18.1529C26.6472 18.4283 27.0285 18.6521 27.499 18.8243C27.9696 18.9964 28.501 19.1212 29.0932 19.1987C29.6855 19.2761 30.2818 19.3149 30.8821 19.3149C31.4825 19.3149 32.0788 19.2761 32.671 19.1987C33.2633 19.1212 33.7947 18.9964 34.2652 18.8243C34.7358 18.6521 35.1171 18.4283 35.4091 18.1529C35.7012 17.8774 35.8472 17.5417 35.8472 17.1458V14.4086ZM45.6314 13.1949C46.1669 13.3154 46.7105 13.4489 47.2621 13.5952C47.8138 13.7415 48.3128 13.9567 48.759 14.2407C49.2052 14.5248 49.5662 14.8992 49.8421 15.364C50.1179 15.8288 50.2558 16.4227 50.2558 17.1458C50.2558 18.3853 49.8258 19.3579 48.9659 20.0637C48.1059 20.7696 46.9376 21.1225 45.4611 21.1225C43.9683 21.1225 42.7919 20.7696 41.9319 20.0637C41.072 19.3579 40.642 18.3853 40.642 17.1458H42.3457C42.3457 17.5934 42.439 17.9592 42.6256 18.2432C42.8122 18.5273 43.0556 18.7511 43.3558 18.9146C43.6559 19.0782 43.9926 19.1901 44.3658 19.2503C44.739 19.3106 45.1041 19.3407 45.4611 19.3407C45.818 19.3407 46.1791 19.3106 46.5441 19.2503C46.9092 19.1901 47.2419 19.0782 47.542 18.9146C47.8422 18.7511 48.0897 18.5273 48.2844 18.2432C48.4791 17.9592 48.5764 17.5934 48.5764 17.1458C48.5764 16.8359 48.5318 16.5777 48.4426 16.3711C48.3533 16.1645 48.187 15.9795 47.9436 15.8159C47.7002 15.6524 47.3636 15.5061 46.9336 15.3769C46.5036 15.2478 45.9478 15.1058 45.2664 14.9509C44.7309 14.8304 44.1873 14.6926 43.6357 14.5377C43.084 14.3828 42.585 14.1633 42.1388 13.8792C41.6926 13.5952 41.3316 13.2208 41.0557 12.7559C40.7799 12.2911 40.642 11.6886 40.642 10.9484C40.642 9.70888 41.072 8.73624 41.9319 8.03042C42.7919 7.3246 43.9683 6.97169 45.4611 6.97169C46.9376 6.97169 48.1059 7.3246 48.9659 8.03042C49.8258 8.73624 50.2558 9.70888 50.2558 10.9484H48.5764C48.5764 10.5008 48.4791 10.135 48.2844 9.85091C48.0897 9.56686 47.8422 9.34737 47.542 9.19243C47.2419 9.0375 46.9092 8.9299 46.5441 8.86965C46.1791 8.8094 45.818 8.77927 45.4611 8.77927C45.1041 8.77927 44.739 8.8094 44.3658 8.86965C43.9926 8.9299 43.6559 9.0375 43.3558 9.19243C43.0556 9.34737 42.8122 9.56686 42.6256 9.85091C42.439 10.135 42.3457 10.5008 42.3457 10.9484C42.3457 11.241 42.3822 11.4906 42.4552 11.6972C42.5282 11.9038 42.6824 12.0889 42.9177 12.2524C43.1529 12.416 43.4856 12.5752 43.9156 12.7301C44.3455 12.8851 44.9175 13.04 45.6314 13.1949ZM57.7035 13.1949C58.239 13.3154 58.7825 13.4489 59.3342 13.5952C59.8859 13.7415 60.3848 13.9567 60.831 14.2407C61.2772 14.5248 61.6383 14.8992 61.9141 15.364C62.19 15.8288 62.3279 16.4227 62.3279 17.1458C62.3279 18.3853 61.8979 19.3579 61.0379 20.0637C60.1779 20.7696 59.0097 21.1225 57.5331 21.1225C56.0403 21.1225 54.864 20.7696 54.004 20.0637C53.144 19.3579 52.714 18.3853 52.714 17.1458H54.4178C54.4178 17.5934 54.5111 17.9592 54.6976 18.2432C54.8842 18.5273 55.1276 18.7511 55.4278 18.9146C55.728 19.0782 56.0647 19.1901 56.4379 19.2503C56.8111 19.3106 57.1761 19.3407 57.5331 19.3407C57.8901 19.3407 58.2511 19.3106 58.6162 19.2503C58.9813 19.1901 59.3139 19.0782 59.6141 18.9146C59.9143 18.7511 60.1617 18.5273 60.3564 18.2432C60.5511 17.9592 60.6485 17.5934 60.6485 17.1458C60.6485 16.8359 60.6039 16.5777 60.5146 16.3711C60.4254 16.1645 60.2591 15.9795 60.0157 15.8159C59.7723 15.6524 59.4356 15.5061 59.0056 15.3769C58.5756 15.2478 58.0199 15.1058 57.3384 14.9509C56.803 14.8304 56.2594 14.6926 55.7077 14.5377C55.156 14.3828 54.6571 14.1633 54.2109 13.8792C53.7647 13.5952 53.4036 13.2208 53.1278 12.7559C52.852 12.2911 52.714 11.6886 52.714 10.9484C52.714 9.70888 53.144 8.73624 54.004 8.03042C54.864 7.3246 56.0403 6.97169 57.5331 6.97169C59.0097 6.97169 60.1779 7.3246 61.0379 8.03042C61.8979 8.73624 62.3279 9.70888 62.3279 10.9484H60.6485C60.6485 10.5008 60.5511 10.135 60.3564 9.85091C60.1617 9.56686 59.9143 9.34737 59.6141 9.19243C59.3139 9.0375 58.9813 8.9299 58.6162 8.86965C58.2511 8.8094 57.8901 8.77927 57.5331 8.77927C57.1761 8.77927 56.8111 8.8094 56.4379 8.86965C56.0647 8.9299 55.728 9.0375 55.4278 9.19243C55.1276 9.34737 54.8842 9.56686 54.6976 9.85091C54.5111 10.135 54.4178 10.5008 54.4178 10.9484C54.4178 11.241 54.4543 11.4906 54.5273 11.6972C54.6003 11.9038 54.7544 12.0889 54.9897 12.2524C55.225 12.416 55.5576 12.5752 55.9876 12.7301C56.4176 12.8851 56.9896 13.04 57.7035 13.1949ZM70.8221 21.1225C69.1022 21.1225 67.7635 20.5027 66.8062 19.2632C65.8489 18.0237 65.3702 16.285 65.3702 14.0471V7.25574H67.0739V14.0471C67.0739 14.5463 67.1145 15.0972 67.1956 15.6997C67.2768 16.3023 67.4512 16.8746 67.7189 17.4169C67.9866 17.9592 68.3679 18.4111 68.8628 18.7726C69.3577 19.1341 70.0108 19.3149 70.8221 19.3149C71.6334 19.3149 72.2865 19.1341 72.7814 18.7726C73.2763 18.4111 73.6576 17.9592 73.9253 17.4169C74.193 16.8746 74.3675 16.3023 74.4486 15.6997C74.5297 15.0972 74.5703 14.5463 74.5703 14.0471V7.25574H76.274V14.0471C76.274 16.285 75.7953 18.0237 74.838 19.2632C73.8807 20.5027 72.5421 21.1225 70.8221 21.1225ZM82.1883 20.9933H80.4846V0.877563H82.1883V20.9933ZM92.6784 6.97169C94.7877 6.97169 96.4265 7.59573 97.5948 8.84383C98.7631 10.0919 99.3472 11.8263 99.3472 14.0471V17.1458C99.3472 17.4384 99.2823 17.8129 99.1525 18.2691C99.0227 18.7253 98.7266 19.1642 98.2641 19.586C97.8017 20.0078 97.1324 20.3693 96.2562 20.6706C95.38 20.9718 94.1874 21.1225 92.6784 21.1225C91.1693 21.1225 89.9768 20.9718 89.1006 20.6706C88.2244 20.3693 87.555 20.0078 87.0926 19.586C86.6302 19.1642 86.334 18.7253 86.2042 18.2691C86.0744 17.8129 86.0095 17.4384 86.0095 17.1458C86.0095 16.0957 86.1637 15.2693 86.472 14.6668C86.7803 14.0643 87.194 13.6124 87.7132 13.3111C88.2325 13.0099 88.845 12.8162 89.5508 12.7301C90.2567 12.644 91.0152 12.601 91.8265 12.601H97.5218C97.2946 11.3615 96.7754 10.4147 95.9641 9.76053C95.1528 9.10635 94.0576 8.77927 92.6784 8.77927C91.2829 8.77927 90.1552 9.13218 89.2953 9.838L88.2487 8.41775C89.4007 7.45371 90.8773 6.97169 92.6784 6.97169ZM97.6435 14.4086H92.6784C91.5912 14.4086 90.7191 14.4387 90.0619 14.499C89.4048 14.5592 88.9018 14.684 88.5529 14.8734C88.2041 15.0628 87.9769 15.3382 87.8714 15.6997C87.766 16.0612 87.7132 16.5433 87.7132 17.1458C87.7132 17.5417 87.8593 17.8774 88.1513 18.1529C88.4434 18.4283 88.8247 18.6521 89.2953 18.8243C89.7658 18.9964 90.2972 19.1212 90.8895 19.1987C91.4817 19.2761 92.078 19.3149 92.6784 19.3149C93.2787 19.3149 93.875 19.2761 94.4673 19.1987C95.0595 19.1212 95.5909 18.9964 96.0615 18.8243C96.532 18.6521 96.9133 18.4283 97.2054 18.1529C97.4974 17.8774 97.6435 17.5417 97.6435 17.1458V14.4086Z" fill="white" stroke="white" stroke-width="12" mask="url(#path-1-inside-1_22_7856)"/>
</svg>
