<svg xmlns="http://www.w3.org/2000/svg" width="16" height="16" fill="none" xmlns:v="https://vecta.io/nano"><g clip-path="url(#A)" fill-rule="evenodd" fill="#56d3a2"><path d="M5.922 3.953c.951-.839 2.2-1.348 3.567-1.348A5.4 5.4 0 0 1 14.884 8a5.4 5.4 0 0 1-5.395 5.395 5.38 5.38 0 0 1-3.567-1.348.56.56 0 0 0-.788.049.56.56 0 0 0 .049.787c1.148 1.014 2.656 1.628 4.306 1.628C13.082 14.512 16 11.594 16 8s-2.918-6.512-6.512-6.512c-1.65 0-3.158.615-4.306 1.628a.56.56 0 0 0-.049.787.56.56 0 0 0 .788.049zm2.71.773v2.977c0 .148.059.29.164.394l2.381 2.381a.56.56 0 0 0 .789 0 .56.56 0 0 0 0-.789L9.748 7.471V4.726a.56.56 0 0 0-.558-.558.56.56 0 0 0-.558.558zM.558 5.954h4.465a.56.56 0 0 0 .558-.558.56.56 0 0 0-.558-.558H.558A.56.56 0 0 0 0 5.395a.56.56 0 0 0 .558.558zm.745 2.604h4.465A.56.56 0 0 0 6.327 8a.56.56 0 0 0-.558-.558H1.303A.56.56 0 0 0 .745 8a.56.56 0 0 0 .558.558zm.743 2.605h4.465a.56.56 0 0 0 .558-.558.56.56 0 0 0-.558-.558H2.046a.56.56 0 0 0-.558.558.56.56 0 0 0 .558.558z"/></g><defs><clipPath id="A"><path fill="#fff" d="M0 0h16v16H0z"/></clipPath></defs></svg>