<svg xmlns="http://www.w3.org/2000/svg" width="16" height="16" fill="#56d3a2" fill-rule="evenodd" xmlns:v="https://vecta.io/nano"><path d="M5.143 12.143c2.288 0 4.143-1.855 4.143-4.143S7.431 3.857 5.143 3.857 1 5.712 1 8s1.855 4.143 4.143 4.143zm0 1c2.84 0 5.143-2.302 5.143-5.143S7.983 2.857 5.143 2.857 0 5.16 0 8s2.303 5.143 5.143 5.143z"/><path d="M10.857 12.143C13.145 12.143 15 10.288 15 8s-1.855-4.143-4.143-4.143S6.714 5.712 6.714 8s1.855 4.143 4.143 4.143zm0 1C13.697 13.143 16 10.84 16 8s-2.303-5.143-5.143-5.143S5.714 5.16 5.714 8s2.303 5.143 5.143 5.143z"/></svg>