<svg xmlns="http://www.w3.org/2000/svg" width="16" height="16" fill="none" xmlns:v="https://vecta.io/nano"><g clip-path="url(#A)"><path d="M15.921 1.739a.47.47 0 0 0-.389-.208H12.29a.47.47 0 0 0-.438.302L9.243 8.669 7.964 3.147c-.215-.926-1.029-1.573-1.981-1.573H.469a.47.47 0 0 0-.468.438.47.47 0 0 0 .407.496c.013.002 1.308.179 2.892.877l.823.402 2.693 10.39a.47.47 0 0 0 .454.351h3.305a.47.47 0 0 0 .434-.29l4.957-12.059a.47.47 0 0 0-.044-.439zm-12.279.772h2.341a1.09 1.09 0 0 1 1.068.847l.412 1.78c-.339-.357-.706-.693-1.101-1.007-.799-.635-1.712-1.179-2.712-1.618zM10.26 13.59H7.632L5.274 4.494c.971.682 1.952 1.609 2.701 2.857l.701 3.027a.47.47 0 0 0 .895.061l3.041-7.97h2.219L10.26 13.59z" fill="#56d3a2"/></g><defs><clipPath id="A"><path fill="#fff" d="M0 0h16v16H0z"/></clipPath></defs></svg>