<svg width="32" height="32" viewBox="0 0 32 32" fill="none" xmlns="http://www.w3.org/2000/svg">
<g clip-path="url(#clip0_6080_9567)">
<rect width="32" height="32" rx="16" fill="#242529"/>
<mask id="mask0_6080_9567" style="mask-type:alpha" maskUnits="userSpaceOnUse" x="0" y="-1" width="33" height="34">
<path d="M16.1553 -0.999904C16.1597 -0.999968 16.1641 -1 16.1685 -1C21.2569 -1 25.2101 0.481597 28.0282 3.44484C30.8464 6.40808 32.2555 10.5259 32.2555 15.7984C32.2555 21.1118 30.8464 25.2399 28.0282 28.1827C25.2101 31.1255 21.2569 32.5968 16.1685 32.5968C16.1549 32.5968 16.1413 32.5968 16.1277 32.5968C16.1141 32.5968 16.1006 32.5968 16.087 32.5968C10.9986 32.5968 7.0454 31.1255 4.22723 28.1827C1.40906 25.2399 0 21.1118 0 15.7984C0 10.5259 1.40906 6.40808 4.22723 3.44484C7.0454 0.481597 10.9986 -1 16.087 -1C16.1098 -1 16.1326 -0.999968 16.1553 -0.999904Z" fill="white"/>
</mask>
<g mask="url(#mask0_6080_9567)">
<path d="M22.8438 27.0532V32.4287H23.809V27.0532H22.8438Z" fill="white"/>
<path d="M23.3243 27.8932C22.347 27.8932 21.5547 27.0659 21.5547 26.0453C21.5547 25.0248 22.347 24.1975 23.3243 24.1975C24.3016 24.1975 25.0938 25.0248 25.0938 26.0453C25.0938 27.0659 24.3016 27.8932 23.3243 27.8932ZM23.3243 26.7845C23.7152 26.7845 24.0321 26.4535 24.0321 26.0453C24.0321 25.6371 23.7152 25.3062 23.3243 25.3062C22.9333 25.3062 22.6164 25.6371 22.6164 26.0453C22.6164 26.4535 22.9333 26.7845 23.3243 26.7845Z" fill="white"/>
<path d="M19.3639 23.2186L19.3516 32.4281L20.3168 32.4295L20.3284 23.6996L21.877 22.3889V15.9663H20.9118V21.9084L19.3639 23.2186Z" fill="white"/>
<path d="M21.3946 16.8062C20.4173 16.8062 19.625 15.9789 19.625 14.9584C19.625 13.9379 20.4173 13.1106 21.3946 13.1106C22.3719 13.1106 23.1641 13.9379 23.1641 14.9584C23.1641 15.9789 22.3719 16.8062 21.3946 16.8062ZM21.3946 15.6976C21.7855 15.6976 22.1024 15.3666 22.1024 14.9584C22.1024 14.5502 21.7855 14.2193 21.3946 14.2193C21.0036 14.2193 20.6867 14.5502 20.6867 14.9584C20.6867 15.3666 21.0036 15.6976 21.3946 15.6976Z" fill="white"/>
<path d="M15.7617 17.1423V32.9328H16.7269V17.1423H15.7617Z" fill="white"/>
<path d="M16.2461 17.4781C15.2688 17.4781 14.4766 16.6508 14.4766 15.6303C14.4766 14.6098 15.2688 13.7825 16.2461 13.7825C17.2234 13.7825 18.0157 14.6098 18.0157 15.6303C18.0157 16.6508 17.2234 17.4781 16.2461 17.4781ZM16.2461 16.3694C16.637 16.3694 16.954 16.0385 16.954 15.6303C16.954 15.2221 16.637 14.8912 16.2461 14.8912C15.8552 14.8912 15.5383 15.2221 15.5383 15.6303C15.5383 16.0385 15.8552 16.3694 16.2461 16.3694Z" fill="white"/>
<path d="M12.1775 32.4295L13.1427 32.4281L13.1304 23.2186L11.5824 21.9084V15.9663H10.6172V22.3889L12.1658 23.6996L12.1775 32.4295Z" fill="white"/>
<path d="M11.0977 16.8062C10.1204 16.8062 9.32812 15.9789 9.32812 14.9584C9.32812 13.9379 10.1204 13.1106 11.0977 13.1106C12.075 13.1106 12.8673 13.9379 12.8673 14.9584C12.8673 15.9789 12.075 16.8062 11.0977 16.8062ZM11.0977 15.6976C11.4886 15.6976 11.8055 15.3666 11.8055 14.9584C11.8055 14.5502 11.4886 14.2193 11.0977 14.2193C10.7068 14.2193 10.3899 14.5502 10.3899 14.9584C10.3899 15.3666 10.7068 15.6976 11.0977 15.6976Z" fill="white"/>
<path d="M8.68359 27.0532V32.4287H9.64881V27.0532H8.68359Z" fill="white"/>
<path d="M9.168 27.8932C8.1907 27.8932 7.39844 27.0659 7.39844 26.0453C7.39844 25.0248 8.1907 24.1975 9.168 24.1975C10.1453 24.1975 10.9376 25.0248 10.9376 26.0453C10.9376 27.0659 10.1453 27.8932 9.168 27.8932ZM9.168 26.7845C9.55892 26.7845 9.87583 26.4535 9.87583 26.0453C9.87583 25.6371 9.55892 25.3062 9.168 25.3062C8.77708 25.3062 8.46018 25.6371 8.46018 26.0453C8.46018 26.4535 8.77708 26.7845 9.168 26.7845Z" fill="white"/>
</g>
</g>
<defs>
<clipPath id="clip0_6080_9567">
<rect width="32" height="32" rx="16" fill="white"/>
</clipPath>
</defs>
</svg>
