<?xml version="1.0" standalone="no"?>
<!DOCTYPE svg PUBLIC "-//W3C//DTD SVG 20010904//EN"
 "http://www.w3.org/TR/2001/REC-SVG-20010904/DTD/svg10.dtd">
<svg version="1.0" xmlns="http://www.w3.org/2000/svg"
 width="260.000000pt" height="260.000000pt" viewBox="0 0 260.000000 260.000000"
 preserveAspectRatio="xMidYMid meet">
<metadata>
Created by potrace 1.14, written by Peter Selinger 2001-2017
</metadata>
<g transform="translate(0.000000,260.000000) scale(0.100000,-0.100000)"
fill="#000000" stroke="none">
<path d="M874 1490 c-53 -21 -95 -108 -79 -162 11 -34 52 -86 75 -93 19 -6 20
-15 20 -218 l0 -212 55 -44 55 -44 2 -321 3 -321 38 -3 37 -3 0 339 0 339 -60
52 -60 52 0 187 0 187 29 17 c144 81 38 310 -115 248z m97 -108 c19 -49 -43
-96 -79 -60 -19 19 -14 65 9 81 27 20 58 10 70 -21z"/>
<path d="M1623 1481 c-84 -53 -83 -181 2 -237 l25 -16 0 -193 0 -193 -55 -47
-55 -47 0 -339 0 -340 33 3 32 3 3 316 2 316 60 52 60 52 0 209 0 209 30 16
c49 25 76 96 60 155 -23 84 -125 126 -197 81z m115 -115 c2 -15 -2 -34 -9 -42
-30 -37 -97 3 -85 51 14 55 87 47 94 -9z"/>
<path d="M1239 1427 c-43 -29 -59 -60 -59 -116 0 -50 27 -101 65 -121 l25 -13
0 -564 0 -563 40 0 40 0 0 561 0 561 41 37 c36 32 42 43 46 87 6 62 -14 106
-60 134 -43 27 -96 25 -138 -3z m99 -73 c26 -18 28 -50 5 -76 -31 -35 -83 -12
-83 37 0 20 32 55 50 55 3 0 16 -7 28 -16z"/>
<path d="M730 663 c-45 -23 -80 -76 -80 -120 0 -48 28 -103 62 -122 l28 -16 0
-126 0 -126 40 -16 40 -15 0 144 c0 81 4 144 9 144 5 0 23 12 40 26 115 96 -7
295 -139 227z m81 -83 c23 -13 26 -62 5 -79 -46 -38 -111 25 -71 69 20 22 37
25 66 10z"/>
<path d="M1784 666 c-97 -44 -109 -166 -23 -239 l39 -34 0 -131 0 -132 33 13
32 13 3 122 3 121 33 21 c84 51 85 181 2 235 -34 23 -86 27 -122 11z m91 -100
c31 -48 -18 -102 -64 -69 -23 16 -28 62 -9 81 20 20 56 14 73 -12z"/>
</g>
</svg>
