<svg width="60" height="60" viewBox="0 0 60 60" fill="none" xmlns="http://www.w3.org/2000/svg">
<mask id="mask0_7227_36680" style="mask-type:alpha" maskUnits="userSpaceOnUse" x="2" y="0" width="57" height="59">
<path d="M30.5308 0.000169291C30.5385 5.64699e-05 30.5462 0 30.554 0C39.4897 0 46.432 2.60186 51.381 7.80566C56.3301 13.0095 58.8045 20.2408 58.8045 29.5C58.8045 38.8309 56.3301 46.0803 51.381 51.2482C46.432 56.4161 39.4897 59 30.554 59C30.5301 59 30.5062 59 30.4823 58.9999C30.4585 59 30.4346 59 30.4107 59C21.475 59 14.5327 56.4161 9.58367 51.2482C4.63464 46.0803 2.16016 38.8309 2.16016 29.5C2.16016 20.2408 4.63464 13.0095 9.58367 7.80566C14.5327 2.60186 21.475 0 30.4107 0C30.4508 0 30.4908 5.64304e-05 30.5308 0.000169291Z" fill="white"/>
</mask>
<g mask="url(#mask0_7227_36680)">
<path d="M30.9694 2.13273C30.9772 2.13262 30.9851 2.13257 30.9929 2.13257C40.0668 2.13257 47.1164 4.67161 52.1419 9.74977C57.1675 14.8279 59.6802 21.8847 59.6802 30.9204C59.6802 40.026 57.1675 47.1003 52.1419 52.1435C47.1164 57.1866 40.0668 59.7081 30.9929 59.7081C30.9686 59.7081 30.9444 59.7081 30.9202 59.7081C30.896 59.7081 30.8717 59.7081 30.8475 59.7081C21.7736 59.7081 14.724 57.1866 9.69843 52.1435C4.67289 47.1003 2.16016 40.026 2.16016 30.9204C2.16016 21.8847 4.67289 14.8279 9.69843 9.74977C14.724 4.67161 21.7736 2.13257 30.8475 2.13257C30.8882 2.13257 30.9288 2.13262 30.9694 2.13273Z" fill="#56D3A2"/>
<path d="M42.2812 49.2646V58.7046H43.9763V49.2646H42.2812Z" fill="white"/>
<path d="M43.1232 50.7398C41.4069 50.7398 40.0156 49.2869 40.0156 47.4948C40.0156 45.7026 41.4069 44.2498 43.1232 44.2498C44.8395 44.2498 46.2308 45.7026 46.2308 47.4948C46.2308 49.2869 44.8395 50.7398 43.1232 50.7398ZM43.1232 48.7928C43.8097 48.7928 44.3662 48.2116 44.3662 47.4948C44.3662 46.7779 43.8097 46.1968 43.1232 46.1968C42.4367 46.1968 41.8802 46.7779 41.8802 47.4948C41.8802 48.2116 42.4367 48.7928 43.1232 48.7928Z" fill="white"/>
<path d="M36.17 42.5308L36.1484 58.7037L37.8435 58.7062L37.8639 43.3755L40.5835 41.0738V29.7949H38.8885V40.23L36.17 42.5308Z" fill="white"/>
<path d="M39.7326 31.27C38.0163 31.27 36.625 29.8172 36.625 28.025C36.625 26.2329 38.0163 24.78 39.7326 24.78C41.4488 24.78 42.8401 26.2329 42.8401 28.025C42.8401 29.8172 41.4488 31.27 39.7326 31.27ZM39.7326 29.323C40.4191 29.323 40.9756 28.7419 40.9756 28.025C40.9756 27.3082 40.4191 26.727 39.7326 26.727C39.0461 26.727 38.4895 27.3082 38.4895 28.025C38.4895 28.7419 39.0461 29.323 39.7326 29.323Z" fill="white"/>
<path d="M29.8438 31.8601V59.5901H31.5388V31.8601H29.8438Z" fill="white"/>
<path d="M30.6974 32.45C28.9811 32.45 27.5898 30.9971 27.5898 29.205C27.5898 27.4128 28.9811 25.96 30.6974 25.96C32.4137 25.96 33.805 27.4128 33.805 29.205C33.805 30.9971 32.4137 32.45 30.6974 32.45ZM30.6974 30.503C31.3839 30.503 31.9404 29.9218 31.9404 29.205C31.9404 28.4881 31.3839 27.907 30.6974 27.907C30.0109 27.907 29.4544 28.4881 29.4544 29.205C29.4544 29.9218 30.0109 30.503 30.6974 30.503Z" fill="white"/>
<path d="M23.5486 58.7062L25.2436 58.7037L25.2221 42.5308L22.5036 40.23V29.7949H20.8086V41.0738L23.5281 43.3755L23.5486 58.7062Z" fill="white"/>
<path d="M21.6544 31.27C19.9382 31.27 18.5469 29.8172 18.5469 28.025C18.5469 26.2329 19.9382 24.78 21.6544 24.78C23.3707 24.78 24.762 26.2329 24.762 28.025C24.762 29.8172 23.3707 31.27 21.6544 31.27ZM21.6544 29.323C22.3409 29.323 22.8975 28.7419 22.8975 28.025C22.8975 27.3082 22.3409 26.727 21.6544 26.727C20.9679 26.727 20.4114 27.3082 20.4114 28.025C20.4114 28.7419 20.9679 29.323 21.6544 29.323Z" fill="white"/>
<path d="M17.4102 49.2646V58.7046H19.1052V49.2646H17.4102Z" fill="white"/>
<path d="M18.2638 50.7398C16.5476 50.7398 15.1562 49.2869 15.1562 47.4948C15.1562 45.7026 16.5476 44.2498 18.2638 44.2498C19.9801 44.2498 21.3714 45.7026 21.3714 47.4948C21.3714 49.2869 19.9801 50.7398 18.2638 50.7398ZM18.2638 48.7928C18.9503 48.7928 19.5068 48.2116 19.5068 47.4948C19.5068 46.7779 18.9503 46.1968 18.2638 46.1968C17.5773 46.1968 17.0208 46.7779 17.0208 47.4948C17.0208 48.2116 17.5773 48.7928 18.2638 48.7928Z" fill="white"/>
</g>
</svg>
