<svg width="148" height="44" viewBox="0 0 148 44" fill="none" xmlns="http://www.w3.org/2000/svg">
<g clip-path="url(#clip0_6631_27039)">
<path fill-rule="evenodd" clip-rule="evenodd" d="M55.6082 27.5501C54.9905 28.1773 54.2483 28.6476 53.3818 28.9612C52.5152 29.2748 51.55 29.4316 50.4861 29.4316C48.2554 29.4316 46.5223 28.7865 45.2868 27.4964C44.0513 26.2063 43.4336 24.3965 43.4336 22.0671C43.4336 19.7557 44.0513 17.9504 45.2868 16.6513C46.5223 15.3522 48.2554 14.7027 50.4861 14.7027C52.3222 14.7027 53.8408 15.1775 55.0419 16.1272L53.9609 17.6323C53.0858 16.9335 51.9275 16.5841 50.4861 16.5841C48.7702 16.5841 47.4661 17.0545 46.5738 17.9952C45.6815 18.9359 45.2353 20.2932 45.2353 22.0671C45.2353 23.859 45.6815 25.2207 46.5738 26.1525C47.4661 27.0843 48.7702 27.5501 50.4861 27.5501C52.1506 27.5501 53.4375 27.0932 54.347 26.1794L55.6082 27.5501ZM59.2374 22.094C59.2374 19.7825 59.8123 17.9773 60.9619 16.6782C62.1116 15.3791 63.716 14.7296 65.7752 14.7296V16.611C64.2308 16.611 63.0554 17.0814 62.2489 18.0221C61.4424 18.9628 61.0392 20.3201 61.0392 22.094V29.2972H59.2374V22.094ZM75.4016 14.7027C77.6323 14.7027 79.3654 15.3522 80.6009 16.6513C81.8364 17.9504 82.4541 19.7557 82.4541 22.0671V25.2924C82.4541 25.597 82.3855 25.9868 82.2482 26.4616C82.1109 26.9364 81.7978 27.3933 81.3087 27.8323C80.8197 28.2713 80.1119 28.6476 79.1852 28.9612C78.2586 29.2748 76.9974 29.4316 75.4016 29.4316C73.8058 29.4316 72.5446 29.2748 71.6179 28.9612C70.6913 28.6476 69.9835 28.2713 69.4945 27.8323C69.0054 27.3933 68.6923 26.9364 68.555 26.4616C68.4177 25.9868 68.3491 25.597 68.3491 25.2924C68.3491 24.1994 68.5121 23.3393 68.8381 22.7122C69.1641 22.085 69.6017 21.6147 70.1508 21.3011C70.6999 20.9875 71.3477 20.786 72.0941 20.6964C72.8406 20.6068 73.6427 20.562 74.5007 20.562H80.5237C80.2834 19.2719 79.7343 18.2864 78.8764 17.6055C78.0184 16.9246 76.8602 16.5841 75.4016 16.5841C73.9259 16.5841 72.7333 16.9514 71.8239 17.6861L70.7171 16.2078C71.9354 15.2044 73.4969 14.7027 75.4016 14.7027ZM80.6524 22.4434H75.4016C74.2519 22.4434 73.3296 22.4748 72.6346 22.5375C71.9397 22.6002 71.4077 22.7301 71.0388 22.9272C70.6699 23.1243 70.4297 23.411 70.3181 23.7873C70.2066 24.1636 70.1508 24.6653 70.1508 25.2924C70.1508 25.7045 70.3052 26.054 70.6141 26.3406C70.923 26.6273 71.3262 26.8603 71.8239 27.0395C72.3215 27.2186 72.8834 27.3486 73.5098 27.4292C74.1361 27.5098 74.7667 27.5501 75.4016 27.5501C76.0365 27.5501 76.6671 27.5098 77.2934 27.4292C77.9197 27.3486 78.4817 27.2186 78.9793 27.0395C79.477 26.8603 79.8802 26.6273 80.1891 26.3406C80.4979 26.054 80.6524 25.7045 80.6524 25.2924V22.4434ZM90.9995 21.1802C91.5658 21.3056 92.1406 21.4445 92.724 21.5968C93.3074 21.7491 93.8351 21.9731 94.307 22.2687C94.7789 22.5644 95.1607 22.9541 95.4524 23.4379C95.7441 23.9217 95.8899 24.5399 95.8899 25.2924C95.8899 26.5826 95.4352 27.5949 94.5258 28.3296C93.6163 29.0642 92.3808 29.4316 90.8193 29.4316C89.2407 29.4316 87.9966 29.0642 87.0872 28.3296C86.1777 27.5949 85.723 26.5826 85.723 25.2924H87.5247C87.5247 25.7583 87.6234 26.1391 87.8207 26.4347C88.0181 26.7304 88.2754 26.9633 88.5929 27.1335C88.9104 27.3038 89.2664 27.4202 89.6611 27.4829C90.0557 27.5457 90.4418 27.577 90.8193 27.577C91.1968 27.577 91.5786 27.5457 91.9647 27.4829C92.3508 27.4202 92.7026 27.3038 93.02 27.1335C93.3375 26.9633 93.5992 26.7304 93.8051 26.4347C94.011 26.1391 94.1139 25.7583 94.1139 25.2924C94.1139 24.9699 94.0668 24.7011 93.9724 24.4861C93.878 24.2711 93.7021 24.0785 93.4447 23.9082C93.1873 23.738 92.8313 23.5857 92.3766 23.4513C91.9218 23.3169 91.3341 23.1691 90.6134 23.0078C90.0472 22.8824 89.4723 22.7391 88.8889 22.5778C88.3055 22.4165 87.7778 22.1881 87.3059 21.8924C86.8341 21.5968 86.4523 21.2071 86.1606 20.7233C85.8688 20.2395 85.723 19.6123 85.723 18.8418C85.723 17.5517 86.1777 16.5393 87.0872 15.8047C87.9966 15.07 89.2407 14.7027 90.8193 14.7027C92.3808 14.7027 93.6163 15.07 94.5258 15.8047C95.4352 16.5393 95.8899 17.5517 95.8899 18.8418H94.1139C94.1139 18.376 94.011 17.9952 93.8051 17.6995C93.5992 17.4039 93.3375 17.1754 93.02 17.0142C92.7026 16.8529 92.3508 16.7409 91.9647 16.6782C91.5786 16.6155 91.1968 16.5841 90.8193 16.5841C90.4418 16.5841 90.0557 16.6155 89.6611 16.6782C89.2664 16.7409 88.9104 16.8529 88.5929 17.0142C88.2754 17.1754 88.0181 17.4039 87.8207 17.6995C87.6234 17.9952 87.5247 18.376 87.5247 18.8418C87.5247 19.1464 87.5633 19.4063 87.6406 19.6213C87.7178 19.8363 87.8808 20.0289 88.1296 20.1991C88.3784 20.3694 88.7302 20.5351 89.1849 20.6964C89.6396 20.8576 90.2445 21.0189 90.9995 21.1802ZM103.766 21.1802C104.332 21.3056 104.907 21.4445 105.491 21.5968C106.074 21.7491 106.602 21.9731 107.074 22.2687C107.545 22.5644 107.927 22.9541 108.219 23.4379C108.511 23.9217 108.657 24.5399 108.657 25.2924C108.657 26.5826 108.202 27.5949 107.292 28.3296C106.383 29.0642 105.147 29.4316 103.586 29.4316C102.007 29.4316 100.763 29.0642 99.8538 28.3296C98.9443 27.5949 98.4896 26.5826 98.4896 25.2924H100.291C100.291 25.7583 100.39 26.1391 100.587 26.4347C100.785 26.7304 101.042 26.9633 101.36 27.1335C101.677 27.3038 102.033 27.4202 102.428 27.4829C102.822 27.5457 103.208 27.577 103.586 27.577C103.963 27.577 104.345 27.5457 104.731 27.4829C105.117 27.4202 105.469 27.3038 105.787 27.1335C106.104 26.9633 106.366 26.7304 106.572 26.4347C106.778 26.1391 106.881 25.7583 106.881 25.2924C106.881 24.9699 106.833 24.7011 106.739 24.4861C106.645 24.2711 106.469 24.0785 106.211 23.9082C105.954 23.738 105.598 23.5857 105.143 23.4513C104.688 23.3169 104.101 23.1691 103.38 23.0078C102.814 22.8824 102.239 22.7391 101.656 22.5778C101.072 22.4165 100.544 22.1881 100.073 21.8924C99.6007 21.5968 99.2189 21.2071 98.9272 20.7233C98.6354 20.2395 98.4896 19.6123 98.4896 18.8418C98.4896 17.5517 98.9443 16.5393 99.8538 15.8047C100.763 15.07 102.007 14.7027 103.586 14.7027C105.147 14.7027 106.383 15.07 107.292 15.8047C108.202 16.5393 108.657 17.5517 108.657 18.8418H106.881C106.881 18.376 106.778 17.9952 106.572 17.6995C106.366 17.4039 106.104 17.1754 105.787 17.0142C105.469 16.8529 105.117 16.7409 104.731 16.6782C104.345 16.6155 103.963 16.5841 103.586 16.5841C103.208 16.5841 102.822 16.6155 102.428 16.6782C102.033 16.7409 101.677 16.8529 101.36 17.0142C101.042 17.1754 100.785 17.4039 100.587 17.6995C100.39 17.9952 100.291 18.376 100.291 18.8418C100.291 19.1464 100.33 19.4063 100.407 19.6213C100.484 19.8363 100.647 20.0289 100.896 20.1991C101.145 20.3694 101.497 20.5351 101.952 20.6964C102.406 20.8576 103.011 21.0189 103.766 21.1802ZM117.64 29.4316C115.821 29.4316 114.405 28.7865 113.393 27.4964C112.38 26.2063 111.874 24.3965 111.874 22.0671V14.9984H113.676V22.0671C113.676 22.5868 113.719 23.1601 113.804 23.7873C113.89 24.4144 114.075 25.0102 114.358 25.5746C114.641 26.1391 115.044 26.6094 115.568 26.9857C116.091 27.362 116.782 27.5501 117.64 27.5501C118.497 27.5501 119.188 27.362 119.712 26.9857C120.235 26.6094 120.638 26.1391 120.921 25.5746C121.204 25.0102 121.389 24.4144 121.475 23.7873C121.56 23.1601 121.603 22.5868 121.603 22.0671V14.9984H123.405V22.0671C123.405 24.3965 122.899 26.2063 121.886 27.4964C120.874 28.7865 119.458 29.4316 117.64 29.4316ZM129.66 29.2972H127.858V8.35962H129.66V29.2972ZM140.753 14.7027C142.984 14.7027 144.717 15.3522 145.953 16.6513C147.188 17.9504 147.806 19.7557 147.806 22.0671V25.2924C147.806 25.597 147.737 25.9868 147.6 26.4616C147.463 26.9364 147.149 27.3933 146.66 27.8323C146.171 28.2713 145.464 28.6476 144.537 28.9612C143.61 29.2748 142.349 29.4316 140.753 29.4316C139.157 29.4316 137.896 29.2748 136.97 28.9612C136.043 28.6476 135.335 28.2713 134.846 27.8323C134.357 27.3933 134.044 26.9364 133.907 26.4616C133.769 25.9868 133.701 25.597 133.701 25.2924C133.701 24.1994 133.864 23.3393 134.19 22.7122C134.516 22.085 134.953 21.6147 135.502 21.3011C136.052 20.9875 136.699 20.786 137.446 20.6964C138.192 20.6068 138.994 20.562 139.852 20.562H145.875C145.635 19.2719 145.086 18.2864 144.228 17.6055C143.37 16.9246 142.212 16.5841 140.753 16.5841C139.278 16.5841 138.085 16.9514 137.176 17.6861L136.069 16.2078C137.287 15.2044 138.849 14.7027 140.753 14.7027ZM146.004 22.4434H140.753C139.604 22.4434 138.681 22.4748 137.986 22.5375C137.291 22.6002 136.759 22.7301 136.39 22.9272C136.022 23.1243 135.781 23.411 135.67 23.7873C135.558 24.1636 135.502 24.6653 135.502 25.2924C135.502 25.7045 135.657 26.054 135.966 26.3406C136.275 26.6273 136.678 26.8603 137.176 27.0395C137.673 27.2186 138.235 27.3486 138.861 27.4292C139.488 27.5098 140.118 27.5501 140.753 27.5501C141.388 27.5501 142.019 27.5098 142.645 27.4292C143.271 27.3486 143.833 27.2186 144.331 27.0395C144.829 26.8603 145.232 26.6273 145.541 26.3406C145.85 26.054 146.004 25.7045 146.004 25.2924V22.4434Z" fill="white"/>
<mask id="mask0_6631_27039" style="mask-type:alpha" maskUnits="userSpaceOnUse" x="0" y="5" width="33" height="34">
<path d="M16.1553 5.0001C16.1597 5.00003 16.1641 5 16.1685 5C21.2569 5 25.2101 6.4816 28.0282 9.44484C30.8464 12.4081 32.2555 16.5259 32.2555 21.7984C32.2555 27.1118 30.8464 31.2399 28.0282 34.1827C25.2101 37.1255 21.2569 38.5968 16.1685 38.5968C16.1549 38.5968 16.1413 38.5968 16.1277 38.5968C16.1141 38.5968 16.1006 38.5968 16.087 38.5968C10.9986 38.5968 7.0454 37.1255 4.22723 34.1827C1.40906 31.2399 0 27.1118 0 21.7984C0 16.5259 1.40906 12.4081 4.22723 9.44484C7.0454 6.4816 10.9986 5 16.087 5C16.1098 5 16.1326 5.00003 16.1553 5.0001Z" fill="white"/>
</mask>
<g mask="url(#mask0_6631_27039)">
<path d="M16.4051 6.21445C16.4095 6.21439 16.414 6.21436 16.4185 6.21436C21.5855 6.21436 25.5998 7.66018 28.4615 10.5519C31.3233 13.4436 32.7541 17.462 32.7541 22.6072C32.7541 27.7923 31.3233 31.8207 28.4615 34.6925C25.5998 37.5642 21.5855 39.0001 16.4185 39.0001C16.4046 39.0001 16.3908 39.0001 16.377 39C16.3633 39.0001 16.3495 39.0001 16.3356 39.0001C11.1686 39.0001 7.15431 37.5642 4.29258 34.6925C1.43085 31.8207 0 27.7923 0 22.6072C0 17.462 1.43085 13.4436 4.29258 10.5519C7.15431 7.66018 11.1686 6.21436 16.3356 6.21436C16.3588 6.21436 16.382 6.21439 16.4051 6.21445Z" fill="#56D3A2"/>
<path d="M22.8438 33.0532V38.4287H23.809V33.0532H22.8438Z" fill="white"/>
<path d="M23.3243 33.8932C22.347 33.8932 21.5547 33.0659 21.5547 32.0453C21.5547 31.0248 22.347 30.1975 23.3243 30.1975C24.3016 30.1975 25.0938 31.0248 25.0938 32.0453C25.0938 33.0659 24.3016 33.8932 23.3243 33.8932ZM23.3243 32.7845C23.7152 32.7845 24.0321 32.4535 24.0321 32.0453C24.0321 31.6371 23.7152 31.3062 23.3243 31.3062C22.9333 31.3062 22.6164 31.6371 22.6164 32.0453C22.6164 32.4535 22.9333 32.7845 23.3243 32.7845Z" fill="white"/>
<path d="M19.3639 29.2186L19.3516 38.4281L20.3168 38.4295L20.3284 29.6996L21.877 28.3889V21.9663H20.9118V27.9084L19.3639 29.2186Z" fill="white"/>
<path d="M21.3946 22.8062C20.4173 22.8062 19.625 21.9789 19.625 20.9584C19.625 19.9379 20.4173 19.1106 21.3946 19.1106C22.3719 19.1106 23.1641 19.9379 23.1641 20.9584C23.1641 21.9789 22.3719 22.8062 21.3946 22.8062ZM21.3946 21.6976C21.7855 21.6976 22.1024 21.3666 22.1024 20.9584C22.1024 20.5502 21.7855 20.2193 21.3946 20.2193C21.0036 20.2193 20.6867 20.5502 20.6867 20.9584C20.6867 21.3666 21.0036 21.6976 21.3946 21.6976Z" fill="white"/>
<path d="M15.7617 23.1423V38.9328H16.7269V23.1423H15.7617Z" fill="white"/>
<path d="M16.2461 23.4781C15.2688 23.4781 14.4766 22.6508 14.4766 21.6303C14.4766 20.6098 15.2688 19.7825 16.2461 19.7825C17.2234 19.7825 18.0157 20.6098 18.0157 21.6303C18.0157 22.6508 17.2234 23.4781 16.2461 23.4781ZM16.2461 22.3694C16.637 22.3694 16.954 22.0385 16.954 21.6303C16.954 21.2221 16.637 20.8912 16.2461 20.8912C15.8552 20.8912 15.5383 21.2221 15.5383 21.6303C15.5383 22.0385 15.8552 22.3694 16.2461 22.3694Z" fill="white"/>
<path d="M12.1775 38.4295L13.1427 38.4281L13.1304 29.2186L11.5824 27.9084V21.9663H10.6172V28.3889L12.1658 29.6996L12.1775 38.4295Z" fill="white"/>
<path d="M11.0977 22.8062C10.1204 22.8062 9.32812 21.9789 9.32812 20.9584C9.32812 19.9379 10.1204 19.1106 11.0977 19.1106C12.075 19.1106 12.8673 19.9379 12.8673 20.9584C12.8673 21.9789 12.075 22.8062 11.0977 22.8062ZM11.0977 21.6976C11.4886 21.6976 11.8055 21.3666 11.8055 20.9584C11.8055 20.5502 11.4886 20.2193 11.0977 20.2193C10.7068 20.2193 10.3899 20.5502 10.3899 20.9584C10.3899 21.3666 10.7068 21.6976 11.0977 21.6976Z" fill="white"/>
<path d="M8.68359 33.0532V38.4287H9.64881V33.0532H8.68359Z" fill="white"/>
<path d="M9.168 33.8932C8.1907 33.8932 7.39844 33.0659 7.39844 32.0453C7.39844 31.0248 8.1907 30.1975 9.168 30.1975C10.1453 30.1975 10.9376 31.0248 10.9376 32.0453C10.9376 33.0659 10.1453 33.8932 9.168 33.8932ZM9.168 32.7845C9.55892 32.7845 9.87583 32.4535 9.87583 32.0453C9.87583 31.6371 9.55892 31.3062 9.168 31.3062C8.77708 31.3062 8.46018 31.6371 8.46018 32.0453C8.46018 32.4535 8.77708 32.7845 9.168 32.7845Z" fill="white"/>
</g>
</g>
<defs>
<clipPath id="clip0_6631_27039">
<rect width="148" height="34" fill="white" transform="translate(0 5)"/>
</clipPath>
</defs>
</svg>
