<svg xmlns="http://www.w3.org/2000/svg" width="148" height="44" fill="none" xmlns:v="https://vecta.io/nano"><path fill-rule="evenodd" d="M17.2411 31.1518c-.8748.8881-1.9258 1.5542-3.153 1.9982s-2.594.6661-4.10066.6661c-3.15906 0-5.61337-.9135-7.363-2.7405S0 26.6858 0 23.387c0-3.2734.874804-5.8299 2.62444-7.6696s4.20394-2.7595 7.363-2.7595c2.60016 0 4.75066.6724 6.45176 2.0173l-1.5309 2.1315c-1.2394-.9897-2.8796-1.4845-4.92086-1.4845-2.43005 0-4.27686.6661-5.54048 1.9983s-1.89542 3.2544-1.89542 5.7665c0 2.5375.6318 4.466 1.89542 5.7855s3.11043 1.9793 5.54048 1.9793c2.35716 0 4.17966-.6471 5.46756-1.9412l1.7861 1.9412zm5.1395-7.7267c0-3.2734.8141-5.8299 2.4422-7.6696s3.9002-2.7596 6.8162-2.7596v2.6644c-2.187 0-3.8516.6661-4.9937 1.9983s-1.7132 3.2543-1.7132 5.7665v10.2007h-2.5515V23.4251zm22.8909-10.4672c3.1591 0 5.6134.9198 7.363 2.7595s2.6244 4.3962 2.6244 7.6696v4.5675c0 .4314-.0971.9833-.2916 1.6557s-.6378 1.3195-1.3304 1.9412-1.6949 1.1546-3.0072 1.5986-3.0982.6661-5.3582.6661-4.046-.222-5.3582-.6661-2.3146-.9769-3.0072-1.5986-1.136-1.2687-1.3304-1.9412-.2916-1.2243-.2916-1.6557c0-1.5479.2308-2.7659.6925-3.654s1.0814-1.5542 1.859-1.9983 1.695-.7295 2.752-.8564 2.1931-.1903 3.4081-.1903h8.5295c-.3402-1.827-1.1179-3.2226-2.3329-4.1869s-2.8552-1.4464-4.9208-1.4464c-2.0898 0-3.7787.5202-5.0666 1.5606l-1.5674-2.0934c1.7254-1.421 3.9367-2.1315 6.634-2.1315zm7.4359 10.962h-7.4359l-3.9184.1332c-.9842.0888-1.7375.2728-2.2599.5519s-.8627.6851-1.0207 1.218-.2369 1.2434-.2369 2.1315c0 .5836.2187 1.0784.6561 1.4844s1.0085.7359 1.7132.9897 1.5005.4377 2.3875.5519 1.78.1713 2.6791.1713 1.7922-.0571 2.6791-.1713 1.6828-.2982 2.3875-.5519 1.2758-.5837 1.7132-.9897.6561-.9008.6561-1.4844v-4.0346zm14.6531-1.789l2.4422.59c.8262.2157 1.5734.5329 2.2417.9516s1.2089.9706 1.6221 1.6557.6196 1.5605.6196 2.6263c0 1.827-.6439 3.2607-1.9319 4.3011s-3.0375 1.5605-5.2488 1.5605c-2.2357 0-3.9974-.5201-5.2854-1.5605s-1.9318-2.4741-1.9318-4.3011h2.5515c0 .6598.1397 1.199.4192 1.6177s.6439.7485 1.0935.9896.9538.406 1.5127.4948 1.1056.1332 1.6403.1332 1.0752-.0444 1.622-.1332 1.0449-.2537 1.4945-.4948.8201-.5709 1.1117-.9896.4374-.9579.4374-1.6177c0-.4567-.0668-.8374-.2005-1.1419s-.3827-.5773-.7472-.8183-.8687-.4568-1.5127-.6471l-2.4968-.628-2.4422-.609c-.8262-.2284-1.5735-.5519-2.2417-.9706s-1.209-.9706-1.6221-1.6557-.6196-1.5733-.6196-2.6644c0-1.827.6439-3.2607 1.9318-4.3011s3.0497-1.5605 5.2854-1.5605c2.2113 0 3.9609.5201 5.2488 1.5605s1.9319 2.4741 1.9319 4.3011H71.771c0-.6598-.1458-1.199-.4374-1.6177s-.6622-.7422-1.1117-.9706-.9477-.3869-1.4945-.4757-1.0874-.1333-1.622-.1333-1.0814.0444-1.6403.1333-1.0631.2474-1.5127.4757-.8141.5519-1.0935.9706-.4192.9579-.4192 1.6177c0 .4314.0547.7993.164 1.1038s.3402.5773.6926.8184.8505.4757 1.4944.7041 1.5006.4568 2.5698.6851zm18.0795 0l2.4421.59c.8263.2157 1.5735.5329 2.2417.9516s1.209.9706 1.6221 1.6557.6196 1.5605.6196 2.6263c0 1.827-.6439 3.2607-1.9318 4.3011s-3.0376 1.5605-5.2489 1.5605c-2.2356 0-3.9974-.5201-5.2853-1.5605s-1.9319-2.4741-1.9319-4.3011h2.5515c0 .6598.1398 1.199.4192 1.6177s.644.7485 1.0935.9896.9538.406 1.5127.4948 1.1057.1332 1.6403.1332 1.0753-.0444 1.6221-.1332 1.0449-.2537 1.4944-.4948.8202-.5709 1.1118-.9896.4374-.9579.4374-1.6177c0-.4567-.0668-.8374-.2005-1.1419s-.3827-.5773-.7472-.8183-.8688-.4568-1.5127-.6471l-2.4969-.628-2.4422-.609c-.8262-.2284-1.5734-.5519-2.2417-.9706s-1.2089-.9706-1.622-1.6557-.6197-1.5733-.6197-2.6644c0-1.827.644-3.2607 1.9319-4.3011s3.0497-1.5605 5.2853-1.5605c2.2113 0 3.961.5201 5.2489 1.5605s1.9318 2.4741 1.9318 4.3011h-2.515c0-.6598-.1458-1.199-.4374-1.6177s-.6622-.7422-1.1118-.9706-.9477-.3869-1.4944-.4757-1.0875-.1333-1.6221-.1333-1.0814.0444-1.6403.1333-1.0631.2474-1.5127.4757-.814.5519-1.0935.9706-.4192.9579-.4192 1.6177c0 .4314.0547.7993.1641 1.1038s.3402.5773.6925.8184.8505.4757 1.4945.7041 1.5005.4568 2.5698.6851zm19.647 11.6852c-2.576 0-4.581-.9135-6.0146-2.7405s-2.1505-4.3898-2.1505-7.6886V13.3765h2.5515V23.387c0 .7359.0608 1.5479.1823 2.436s.3823 1.7318.7833 2.5312.972 1.4654 1.714 1.9982 1.719.7994 2.934.7994 2.193-.2665 2.934-.7994 1.312-1.1989 1.713-1.9982.662-1.6431.784-2.5312.182-1.7001.182-2.436V13.3765h2.552V23.387c0 3.2988-.717 5.8616-2.151 7.6886s-3.438 2.7405-6.014 2.7405zm17.022-.1903h-2.551V3.9751h2.551v29.6507zm15.71-20.6679c3.159 0 5.614.9198 7.363 2.7595s2.625 4.3962 2.625 7.6696v4.5675c0 .4314-.097.9833-.292 1.6557s-.638 1.3195-1.33 1.9412-1.695 1.1546-3.007 1.5986-3.099.6661-5.359.6661-4.046-.222-5.358-.6661-2.315-.9769-3.007-1.5986-1.136-1.2687-1.331-1.9412-.291-1.2243-.291-1.6557c0-1.5479.231-2.7659.692-3.654s1.082-1.5542 1.859-1.9983 1.695-.7295 2.752-.8564 2.194-.1903 3.409-.1903h8.529c-.34-1.827-1.118-3.2226-2.333-4.1869s-2.855-1.4464-4.921-1.4464c-2.09 0-3.778.5202-5.066 1.5606l-1.568-2.0934c1.726-1.421 3.937-2.1315 6.634-2.1315zm7.436 10.962h-7.436l-3.918.1332c-.984.0888-1.738.2728-2.26.5519s-.863.6851-1.021 1.218-.237 1.2434-.237 2.1315c0 .5836.219 1.0784.657 1.4844s1.008.7359 1.713.9897 1.5.4377 2.387.5519 1.78.1713 2.679.1713 1.792-.0571 2.679-.1713 1.683-.2982 2.388-.5519 1.276-.5837 1.713-.9897.656-.9008.656-1.4844v-4.0346z" fill="#0a0b0c"/></svg>