<svg width="72" height="72" viewBox="0 0 72 72" fill="none" xmlns="http://www.w3.org/2000/svg">
<path d="M65.0767 12.8954C57.2548 11.6332 51.4451 13.1249 47.6475 17.3704C43.85 21.6159 41.9512 27.8694 41.9512 36.1309V59.5385H65.0767V36.1309H53.1739C52.5504 32.0001 53.1172 28.6439 54.8743 26.0622C56.688 23.4805 59.6354 22.3617 63.7164 22.7059L65.0767 12.8954ZM30.0484 12.8954C22.2265 11.6332 16.4168 13.1249 12.6192 17.3704C8.82164 21.6159 6.92285 27.8694 6.92285 36.1309V59.5385H30.0484V36.1309H18.1455C17.522 32.0001 18.0888 28.6439 19.8459 26.0622C21.6597 23.4805 24.6071 22.3617 28.688 22.7059L30.0484 12.8954Z" fill="#56D3A2"/>
</svg>
