<svg width="742" height="372" viewBox="0 0 742 372" fill="none" xmlns="http://www.w3.org/2000/svg">
<g opacity="0.25" clip-path="url(#clip0_6385_14650)">
<path d="M414.801 606.1L414.801 475.9L384.801 430.2L384.801 364.1L439.001 329.7L439.001 141L411.901 101.3L411.901 69.1001" stroke="url(#paint0_linear_6385_14650)" stroke-width="2" stroke-miterlimit="10"/>
<path d="M412.002 62.9999C414.55 62.9999 416.602 65.0522 416.602 67.5999C416.602 70.1361 414.462 72.2 412.002 72.2C409.455 72.2 407.402 70.1476 407.402 67.5999C407.402 65.0522 409.455 62.9999 412.002 62.9999Z" fill="#0A0B0C" stroke="#56D3A2" stroke-width="2"/>
<path d="M448.502 606.1L448.502 475.2L417.902 428.6L418.502 369.5L472.702 333.8L472.702 141L445.602 101.3L445.602 8.30011" stroke="url(#paint1_linear_6385_14650)" stroke-width="2" stroke-miterlimit="10"/>
<path d="M445.636 10.2004L445.62 10.1998L445.604 10.1998C443.056 10.1998 441.004 8.14758 441.004 5.59987C441.004 3.05216 443.056 0.999893 445.604 0.999893C448.152 0.999893 450.204 3.05216 450.204 5.59987C450.204 8.17806 448.129 10.2808 445.636 10.2004Z" fill="#0A0B0C" stroke="#56D3A2" stroke-width="2"/>
<path d="M482.602 606.1L482.602 475.2L452.102 428.6L452.602 369.5L506.802 333.8L506.802 146.3" stroke="url(#paint2_linear_6385_14650)" stroke-width="2" stroke-miterlimit="10"/>
<path d="M506.803 143C509.351 143 511.403 145.052 511.403 147.6C511.403 150.148 509.351 152.2 506.803 152.2C504.255 152.2 502.203 150.148 502.203 147.6C502.203 145.052 504.255 143 506.803 143Z" fill="#0A0B0C" stroke="#56D3A2" stroke-width="2"/>
<path d="M589.203 287.3L589.203 459.5L616.203 499.1L616.203 566.1" stroke="url(#paint3_linear_6385_14650)" stroke-width="2" stroke-miterlimit="10"/>
<path d="M589.203 283.2C592.241 283.2 594.703 285.663 594.703 288.7C594.703 291.738 592.241 294.2 589.203 294.2C586.166 294.2 583.703 291.738 583.703 288.7C583.703 285.663 586.166 283.2 589.203 283.2Z" fill="#0A0B0C" stroke="#56D3A2" stroke-width="2"/>
<path d="M586.803 606.1L586.803 539.1L559.703 499.5L559.703 321.2L533.703 295.1L533.703 205.7L558.303 181L558.303 91.9001" stroke="url(#paint4_linear_6385_14650)" stroke-width="2" stroke-miterlimit="10"/>
<path d="M558.305 87.8C561.352 87.8 563.805 90.2523 563.805 93.3C563.805 96.2285 561.369 98.7073 558.291 98.8C555.25 98.7926 552.805 96.3431 552.805 93.3C552.805 90.2523 555.257 87.8 558.305 87.8Z" fill="#0A0B0C" stroke="#56D3A2" stroke-width="2"/>
<path d="M708.303 260.4L708.303 432.6L681.203 472.2L681.203 606.1" stroke="url(#paint5_linear_6385_14650)" stroke-width="2" stroke-miterlimit="10"/>
<path d="M702.805 261.7C702.805 258.652 705.257 256.2 708.305 256.2C711.352 256.2 713.805 258.652 713.805 261.7C713.805 264.748 711.352 267.2 708.305 267.2C705.257 267.2 702.805 264.748 702.805 261.7Z" fill="#0A0B0C" stroke="#56D3A2" stroke-width="2"/>
<path d="M735.301 220.4L735.301 432.6L708.301 472.2L708.301 606.1" stroke="url(#paint6_linear_6385_14650)" stroke-width="2" stroke-miterlimit="10"/>
<path d="M729.902 221.7C729.902 218.652 732.355 216.2 735.402 216.2C738.45 216.2 740.902 218.652 740.902 221.7C740.902 224.748 738.45 227.2 735.402 227.2C732.355 227.2 729.902 224.748 729.902 221.7Z" fill="#0A0B0C" stroke="#56D3A2" stroke-width="2"/>
<path d="M356.203 606.1C356.203 600.4 356.203 355.3 356.203 355.3L417.303 313.8" stroke="url(#paint7_linear_6385_14650)" stroke-width="2" stroke-miterlimit="10"/>
<path d="M419.657 318.763L419.646 318.77L419.635 318.778C417.496 320.258 414.633 319.681 413.241 317.553L413.229 317.534L413.216 317.516C411.756 315.489 412.318 312.532 414.452 311.137L414.47 311.125L414.489 311.112C416.516 309.652 419.472 310.213 420.867 312.347L420.88 312.366L420.893 312.384C422.352 314.411 421.791 317.368 419.657 318.763Z" fill="#0A0B0C" stroke="#56D3A2" stroke-width="2"/>
<path d="M334 606.1L334 333.5L420.6 278L420.6 183.3" stroke="url(#paint8_linear_6385_14650)" stroke-width="2" stroke-miterlimit="10"/>
<path d="M420.702 180C423.249 180 425.302 182.052 425.302 184.6C425.302 187.148 423.249 189.2 420.702 189.2C418.154 189.2 416.102 187.148 416.102 184.6C416.102 182.052 418.154 180 420.702 180Z" fill="#0A0B0C" stroke="#56D3A2" stroke-width="2"/>
<path d="M310.902 606.1L310.902 280.1L356.202 250.3L356.202 146.3" stroke="url(#paint9_linear_6385_14650)" stroke-width="2" stroke-miterlimit="10"/>
<path d="M356.202 143C358.749 143 360.802 145.052 360.802 147.6C360.802 150.148 358.749 152.2 356.202 152.2C353.654 152.2 351.602 150.148 351.602 147.6C351.602 145.052 353.654 143 356.202 143Z" fill="#0A0B0C" stroke="#56D3A2" stroke-width="2"/>
<path d="M93.2031 606.1L93.2031 500.2L148.403 445L148.403 356.6L148.403 255.7" stroke="url(#paint10_linear_6385_14650)" stroke-width="2" stroke-miterlimit="10"/>
<path d="M148.437 261.501L148.421 261.5L148.405 261.5C145.857 261.5 143.805 259.448 143.805 256.9C143.805 254.352 145.857 252.3 148.405 252.3C150.952 252.3 153.005 254.352 153.005 256.9C153.005 259.566 150.942 261.581 148.437 261.501Z" fill="#0A0B0C" stroke="#56D3A2" stroke-width="2"/>
<path d="M124.301 606.1L124.301 500.2L179.501 445L179.501 356.6L179.501 289.9L216.301 253.1L216.301 100.1" stroke="url(#paint11_linear_6385_14650)" stroke-width="2" stroke-miterlimit="10"/>
<path d="M216.331 105.901L216.315 105.9L216.299 105.9C213.752 105.9 211.699 103.848 211.699 101.3C211.699 98.7523 213.752 96.7001 216.299 96.7001C218.847 96.7001 220.899 98.7523 220.899 101.3C220.899 103.878 218.825 105.981 216.331 105.901Z" fill="#0A0B0C" stroke="#56D3A2" stroke-width="2"/>
<path d="M151.902 606.1L151.902 509.2L205.702 455.4L205.702 371.6L205.702 313.7L253.502 265.9L257.802 137.7" stroke="url(#paint12_linear_6385_14650)" stroke-width="2" stroke-miterlimit="10"/>
<path d="M257.97 134.4C260.509 134.482 262.485 136.611 262.403 139.168C262.321 141.707 260.191 143.683 257.634 143.601C255.095 143.519 253.119 141.389 253.202 138.832C253.284 136.293 255.413 134.317 257.97 134.4Z" fill="#0A0B0C" stroke="#56D3A2" stroke-width="2"/>
<path d="M287.402 449L287.402 211" stroke="url(#paint13_linear_6385_14650)" stroke-width="2" stroke-miterlimit="10"/>
<path d="M287.401 207.7C289.949 207.7 292.001 209.752 292.001 212.3C292.001 214.848 289.949 216.9 287.401 216.9C284.853 216.9 282.801 214.848 282.801 212.3C282.801 209.752 284.853 207.7 287.401 207.7Z" fill="#0A0B0C" stroke="#56D3A2" stroke-width="2"/>
<path d="M387.002 202.1L387.002 262.6L328.402 299.1" stroke="url(#paint14_linear_6385_14650)" stroke-width="2" stroke-miterlimit="10"/>
<path d="M382.402 203.4C382.402 200.852 384.455 198.8 387.002 198.8C389.55 198.8 391.602 200.852 391.602 203.4C391.602 205.948 389.55 208 387.002 208C384.455 208 382.402 205.948 382.402 203.4Z" fill="#0A0B0C" stroke="#56D3A2" stroke-width="2"/>
<path d="M290.004 606.1L290.004 490.8L258.004 458.8L258.004 319" stroke="url(#paint15_linear_6385_14650)" stroke-width="2" stroke-miterlimit="10"/>
<path d="M258.002 315.7C260.55 315.7 262.602 317.752 262.602 320.3C262.602 322.848 260.55 324.9 258.002 324.9C255.455 324.9 253.402 322.848 253.402 320.3C253.402 317.752 255.455 315.7 258.002 315.7Z" fill="#0A0B0C" stroke="#56D3A2" stroke-width="2"/>
<path d="M647.602 364.9L647.602 307.5" stroke="url(#paint16_linear_6385_14650)" stroke-width="2" stroke-miterlimit="10"/>
<path d="M647.6 304.1C650.148 304.1 652.2 306.152 652.2 308.7C652.2 311.336 650.159 313.3 647.6 313.3C645.052 313.3 643 311.248 643 308.7C643 306.152 645.052 304.1 647.6 304.1Z" fill="#0A0B0C" stroke="#56D3A2" stroke-width="2"/>
<path d="M658.801 606.1L658.801 436.3L675.001 420.1L675.001 174.4" stroke="url(#paint17_linear_6385_14650)" stroke-width="2" stroke-miterlimit="10"/>
<path d="M675.132 180.201L675.116 180.2L675.1 180.2C672.552 180.2 670.5 178.148 670.5 175.6C670.5 173.052 672.552 171 675.1 171C677.648 171 679.7 173.052 679.7 175.6C679.7 178.266 677.637 180.281 675.132 180.201Z" fill="#0A0B0C" stroke="#56D3A2" stroke-width="2"/>
<path d="M640.303 566.1L640.303 450.4L620.203 419.9L620.203 242.9" stroke="url(#paint18_linear_6385_14650)" stroke-width="2" stroke-miterlimit="10"/>
<path d="M620.303 239.5C622.851 239.5 624.903 241.552 624.903 244.1C624.903 246.736 622.863 248.7 620.303 248.7C617.755 248.7 615.703 246.648 615.703 244.1C615.703 241.552 617.755 239.5 620.303 239.5Z" fill="#0A0B0C" stroke="#56D3A2" stroke-width="2"/>
<path d="M64.9023 606.1L64.9023 563.3L5.40234 563.3L5.40233 233.8" stroke="url(#paint19_linear_6385_14650)" stroke-width="2" stroke-miterlimit="10"/>
<path d="M5.50234 230.5C8.05006 230.5 10.1023 232.552 10.1023 235.1C10.1023 237.636 7.96166 239.7 5.50234 239.7C2.95463 239.7 0.902344 237.648 0.902344 235.1C0.902343 232.552 2.95463 230.5 5.50234 230.5Z" fill="#0A0B0C" stroke="#56D3A2" stroke-width="2"/>
<path d="M28.2031 183.4L28.2031 387.6L28.2031 426.6L66.1031 388.8L66.1031 133.7" stroke="url(#paint20_linear_6385_14650)" stroke-width="2" stroke-miterlimit="10"/>
<path d="M23.6016 184.7C23.6016 182.152 25.6539 180.1 28.2016 180.1C30.7493 180.1 32.8016 182.152 32.8016 184.7C32.8016 187.248 30.7493 189.3 28.2016 189.3C25.6539 189.3 23.6016 187.248 23.6016 184.7Z" fill="#0A0B0C" stroke="#56D3A2" stroke-width="2"/>
<path d="M66.1322 139.601L66.1161 139.6L66.1 139.6C63.5523 139.6 61.5 137.548 61.5 135C61.5 132.452 63.5523 130.4 66.1 130.4C68.6477 130.4 70.7 132.452 70.7 135C70.7 137.578 68.6254 139.681 66.1322 139.601Z" fill="#0A0B0C" stroke="#56D3A2" stroke-width="2"/>
<path d="M122.703 198.1L122.703 428.5L60.8031 490.4L58.9031 532.3L28.2031 532.3L28.2031 479.1L93.4031 414L93.4031 269.9" stroke="url(#paint21_linear_6385_14650)" stroke-width="2" stroke-miterlimit="10"/>
<path d="M122.604 204L122.587 204L122.571 204.001C120.167 204.081 118.004 201.967 118.004 199.4C118.004 196.852 120.056 194.8 122.604 194.8C125.152 194.8 127.204 196.852 127.204 199.4C127.204 201.948 125.152 204 122.604 204Z" fill="#0A0B0C" stroke="#56D3A2" stroke-width="2"/>
<path d="M93.4047 266.6C95.9524 266.6 98.0047 268.652 98.0047 271.2C98.0047 273.748 95.9524 275.8 93.4047 275.8C90.857 275.8 88.8047 273.748 88.8047 271.2C88.8047 268.652 90.857 266.6 93.4047 266.6Z" fill="#0A0B0C" stroke="#56D3A2" stroke-width="2"/>
</g>
<defs>
<linearGradient id="paint0_linear_6385_14650" x1="439.001" y1="72.0238" x2="439.001" y2="383.893" gradientUnits="userSpaceOnUse">
<stop stop-color="#56D3A2"/>
<stop offset="1" stop-color="white" stop-opacity="0"/>
<stop offset="1" stop-color="#56D3A2" stop-opacity="0"/>
</linearGradient>
<linearGradient id="paint1_linear_6385_14650" x1="472.702" y1="11.5548" x2="472.702" y2="358.734" gradientUnits="userSpaceOnUse">
<stop stop-color="#56D3A2"/>
<stop offset="1" stop-color="white" stop-opacity="0"/>
<stop offset="1" stop-color="#56D3A2" stop-opacity="0"/>
</linearGradient>
<linearGradient id="paint2_linear_6385_14650" x1="506.802" y1="148.803" x2="506.802" y2="415.838" gradientUnits="userSpaceOnUse">
<stop stop-color="#56D3A2"/>
<stop offset="1" stop-color="white" stop-opacity="0"/>
<stop offset="1" stop-color="#56D3A2" stop-opacity="0"/>
</linearGradient>
<linearGradient id="paint3_linear_6385_14650" x1="616.203" y1="288.818" x2="616.203" y2="450.735" gradientUnits="userSpaceOnUse">
<stop stop-color="#56D3A2"/>
<stop offset="1" stop-color="white" stop-opacity="0"/>
<stop offset="1" stop-color="#56D3A2" stop-opacity="0"/>
</linearGradient>
<linearGradient id="paint4_linear_6385_14650" x1="586.803" y1="94.6996" x2="586.803" y2="393.328" gradientUnits="userSpaceOnUse">
<stop stop-color="#56D3A2"/>
<stop offset="1" stop-color="white" stop-opacity="0"/>
<stop offset="1" stop-color="#56D3A2" stop-opacity="0"/>
</linearGradient>
<linearGradient id="paint5_linear_6385_14650" x1="708.303" y1="262.282" x2="708.303" y2="463.052" gradientUnits="userSpaceOnUse">
<stop stop-color="#56D3A2"/>
<stop offset="1" stop-color="white" stop-opacity="0"/>
<stop offset="1" stop-color="#56D3A2" stop-opacity="0"/>
</linearGradient>
<linearGradient id="paint6_linear_6385_14650" x1="735.301" y1="222.5" x2="735.301" y2="446.5" gradientUnits="userSpaceOnUse">
<stop stop-color="#56D3A2"/>
<stop offset="1" stop-color="white" stop-opacity="0"/>
<stop offset="1" stop-color="#56D3A2" stop-opacity="0"/>
</linearGradient>
<linearGradient id="paint7_linear_6385_14650" x1="417.303" y1="315.392" x2="417.303" y2="485.148" gradientUnits="userSpaceOnUse">
<stop stop-color="#56D3A2"/>
<stop offset="1" stop-color="white" stop-opacity="0"/>
<stop offset="1" stop-color="#56D3A2" stop-opacity="0"/>
</linearGradient>
<linearGradient id="paint8_linear_6385_14650" x1="420.6" y1="185.602" x2="420.6" y2="431.148" gradientUnits="userSpaceOnUse">
<stop stop-color="#56D3A2"/>
<stop offset="1" stop-color="white" stop-opacity="0"/>
<stop offset="1" stop-color="#56D3A2" stop-opacity="0"/>
</linearGradient>
<linearGradient id="paint9_linear_6385_14650" x1="356.202" y1="148.803" x2="356.202" y2="415.838" gradientUnits="userSpaceOnUse">
<stop stop-color="#56D3A2"/>
<stop offset="1" stop-color="white" stop-opacity="0"/>
<stop offset="1" stop-color="#56D3A2" stop-opacity="0"/>
</linearGradient>
<linearGradient id="paint10_linear_6385_14650" x1="148.403" y1="257.608" x2="148.403" y2="461.107" gradientUnits="userSpaceOnUse">
<stop stop-color="#56D3A2"/>
<stop offset="1" stop-color="white" stop-opacity="0"/>
<stop offset="1" stop-color="#56D3A2" stop-opacity="0"/>
</linearGradient>
<linearGradient id="paint11_linear_6385_14650" x1="216.301" y1="102.855" x2="216.301" y2="396.721" gradientUnits="userSpaceOnUse">
<stop stop-color="#56D3A2"/>
<stop offset="1" stop-color="white" stop-opacity="0"/>
<stop offset="1" stop-color="#56D3A2" stop-opacity="0"/>
</linearGradient>
<linearGradient id="paint12_linear_6385_14650" x1="257.802" y1="140.25" x2="257.802" y2="412.279" gradientUnits="userSpaceOnUse">
<stop stop-color="#56D3A2"/>
<stop offset="1" stop-color="white" stop-opacity="0"/>
<stop offset="1" stop-color="#56D3A2" stop-opacity="0"/>
</linearGradient>
<linearGradient id="paint13_linear_6385_14650" x1="288.402" y1="212.296" x2="288.402" y2="350.517" gradientUnits="userSpaceOnUse">
<stop stop-color="#56D3A2"/>
<stop offset="1" stop-color="white" stop-opacity="0"/>
<stop offset="1" stop-color="#56D3A2" stop-opacity="0"/>
</linearGradient>
<linearGradient id="paint14_linear_6385_14650" x1="387.002" y1="202.628" x2="387.002" y2="258.962" gradientUnits="userSpaceOnUse">
<stop stop-color="#56D3A2"/>
<stop offset="1" stop-color="white" stop-opacity="0"/>
<stop offset="1" stop-color="#56D3A2" stop-opacity="0"/>
</linearGradient>
<linearGradient id="paint15_linear_6385_14650" x1="290.004" y1="320.563" x2="290.004" y2="487.3" gradientUnits="userSpaceOnUse">
<stop stop-color="#56D3A2"/>
<stop offset="1" stop-color="white" stop-opacity="0"/>
<stop offset="1" stop-color="#56D3A2" stop-opacity="0"/>
</linearGradient>
<linearGradient id="paint16_linear_6385_14650" x1="648.602" y1="307.813" x2="648.602" y2="341.148" gradientUnits="userSpaceOnUse">
<stop stop-color="#56D3A2"/>
<stop offset="1" stop-color="white" stop-opacity="0"/>
<stop offset="1" stop-color="#56D3A2" stop-opacity="0"/>
</linearGradient>
<linearGradient id="paint17_linear_6385_14650" x1="675.001" y1="176.75" x2="675.001" y2="427.466" gradientUnits="userSpaceOnUse">
<stop stop-color="#56D3A2"/>
<stop offset="1" stop-color="white" stop-opacity="0"/>
<stop offset="1" stop-color="#56D3A2" stop-opacity="0"/>
</linearGradient>
<linearGradient id="paint18_linear_6385_14650" x1="640.303" y1="244.66" x2="640.303" y2="432.362" gradientUnits="userSpaceOnUse">
<stop stop-color="#56D3A2"/>
<stop offset="1" stop-color="white" stop-opacity="0"/>
<stop offset="1" stop-color="#56D3A2" stop-opacity="0"/>
</linearGradient>
<linearGradient id="paint19_linear_6385_14650" x1="64.9024" y1="235.827" x2="64.9024" y2="452.045" gradientUnits="userSpaceOnUse">
<stop stop-color="#56D3A2"/>
<stop offset="1" stop-color="white" stop-opacity="0"/>
<stop offset="1" stop-color="#56D3A2" stop-opacity="0"/>
</linearGradient>
<linearGradient id="paint20_linear_6385_14650" x1="66.1031" y1="135.295" x2="66.1031" y2="305.4" gradientUnits="userSpaceOnUse">
<stop stop-color="#56D3A2"/>
<stop offset="1" stop-color="white" stop-opacity="0"/>
<stop offset="1" stop-color="#56D3A2" stop-opacity="0"/>
</linearGradient>
<linearGradient id="paint21_linear_6385_14650" x1="122.703" y1="199.92" x2="122.703" y2="394.01" gradientUnits="userSpaceOnUse">
<stop stop-color="#56D3A2"/>
<stop offset="1" stop-color="white" stop-opacity="0"/>
<stop offset="1" stop-color="#56D3A2" stop-opacity="0"/>
</linearGradient>
<clipPath id="clip0_6385_14650">
<rect width="606" height="742" fill="white" transform="translate(0 606) rotate(-90)"/>
</clipPath>
</defs>
</svg>
