<svg xmlns="http://www.w3.org/2000/svg" width="48" height="48" fill="none" xmlns:v="https://vecta.io/nano"><path d="M23.448 3.123c.981-.511 2.178.675 1.656 1.655-.302.799-1.45 1.011-2.036.402-.62-.584-.418-1.739.38-2.057zM12.899 4.26c.596-.245 1.35.301 1.289.95.063.705-.799 1.224-1.406.889-.805-.312-.713-1.618.117-1.839h0zm21.606 1.859c-.931-.112-1.078-1.576-.182-1.872.695-.339 1.333.297 1.435.956-.146.563-.617 1.078-1.253.915v.001zM15.299 8.749c.996-.63 2.417.308 2.264 1.465-.052 1.168-1.603 1.845-2.479 1.055-.846-.62-.718-2.044.215-2.52h0zm15.206.669c.445-1.144 2.246-1.18 2.751-.064.5.868-.115 1.942-1.006 2.237-1.18.22-2.301-1.055-1.745-2.172l-.001-.001zm-8.327 2.107c-.01-.984.887-1.718 1.823-1.785.62.124 1.297.389 1.563 1.015.496.864.056 2.053-.841 2.45-.41.23-.895.144-1.341.117-.682-.335-1.257-.992-1.204-1.796h0zM6.489 12.96c.91-.559 2.138.462 1.793 1.45-.19.855-1.339 1.203-1.996.657-.702-.511-.59-1.741.203-2.107zm33.688-.002c.772-.599 2.046.088 1.954 1.062.052.889-1.05 1.559-1.816 1.101-.844-.379-.93-1.678-.138-2.164v.001zm-13.588 1.769c1.274-.458 2.787.09 3.513 1.226.958 1.389.448 3.503-1.038 4.3-1.54.942-3.789.144-4.358-1.576-.646-1.54.295-3.467 1.883-3.949zm-7.475.152c1.412-.666 3.312-.108 3.994 1.337.803 1.406.182 3.363-1.253 4.089-1.437.816-3.463.198-4.158-1.312-.78-1.459-.088-3.442 1.417-4.114zm-7.484 2.559c.108-.91.966-1.501 1.831-1.563.933.112 1.678.837 1.78 1.782-.061.935-.784 1.848-1.774 1.843-1.09.094-2.045-.99-1.837-2.061v-.001zm22.106-1.364c1.119-.651 2.672.297 2.622 1.582.077 1.362-1.643 2.322-2.757 1.523-1.157-.665-1.067-2.538.134-3.105h0zm-17.663 4.799c1.308-.36 2.804.257 3.446 1.459.702 1.21.416 2.892-.676 3.78-1.4 1.302-3.982.779-4.728-.998-.856-1.629.184-3.813 1.958-4.241h0zm14.177-.007c1.272-.364 2.766.126 3.45 1.285.904 1.325.473 3.302-.873 4.156-1.41.992-3.594.471-4.37-1.08-.941-1.605.006-3.872 1.793-4.361zM7.658 22.377c1.13-.427 2.383.82 1.925 1.94-.28 1.021-1.718 1.399-2.461.645-.87-.707-.548-2.279.536-2.586h0zm30.634 1.626c-.032-.936.652-1.766 1.613-1.818.774.122 1.527.747 1.465 1.589.071 1.113-1.27 1.869-2.218 1.346-.444-.226-.672-.682-.86-1.119h0zM2.101 22.926c.68-.297 1.521.293 1.366 1.048-.036.855-1.299 1.184-1.762.469-.41-.495-.165-1.26.397-1.517zm42.872-.018c.479-.341 1.247-.096 1.437.463.322.611-.268 1.448-.956 1.345-.965.088-1.278-1.383-.481-1.808zm-25.207 4.104c1.789-.465 3.712 1.026 3.724 2.869.117 1.862-1.777 3.513-3.609 3.083-1.416-.228-2.526-1.592-2.481-3.022-.004-1.368 1.029-2.64 2.366-2.929h0zm7.086-.004c1.816-.508 3.797 1.011 3.768 2.896.096 1.827-1.739 3.423-3.533 3.06-1.687-.218-2.932-2.072-2.461-3.71.238-1.091 1.149-1.979 2.226-2.246zM13.19 28.142c1.256-.214 2.435 1.188 1.925 2.381-.372 1.271-2.222 1.616-3.04.578-.96-.997-.243-2.821 1.115-2.959zm20.78.058c1.12-.469 2.496.5 2.41 1.716.045 1.339-1.653 2.262-2.749 1.48-1.242-.702-1.015-2.766.339-3.197zm5.808 5.826c-.439-.818.358-1.902 1.266-1.751.452-.008.768.349 1.057.648.059.485.159 1.062-.243 1.436-.546.691-1.784.494-2.081-.333h0zM6.486 32.503c.849-.565 2.07.277 1.879 1.27-.102.877-1.206 1.379-1.935.882-.781-.452-.753-1.739.056-2.151v-.001zm16.767 1.838c1.111-.49 2.526.477 2.421 1.701.082 1.352-1.668 2.289-2.754 1.476-1.206-.697-1.006-2.749.333-3.177l-.001.001zm-7.767 1.811c.946-.498 2.216.362 2.13 1.422.029.87-.82 1.611-1.678 1.482-.711-.015-1.174-.652-1.402-1.258.012-.66.284-1.396.95-1.645v-.001zm15.731.016c.973-.601 2.356.262 2.264 1.395.025 1.184-1.538 1.942-2.444 1.164-.877-.609-.77-2.075.18-2.559zm2.736 6.763c-.432-.655.077-1.444.779-1.593.565.115 1.163.54 1.044 1.195-.083.887-1.379 1.159-1.824.398zm-21.715-.569c.172-.519.59-1.035 1.201-.9.891.063 1.155 1.406.375 1.82-.701.473-1.514-.175-1.577-.92zm10.476.596c.171-.768 1.165-1.141 1.82-.734.432.186.559.67.671 1.082l-.165.644c-.268.318-.612.636-1.059.624-.83.097-1.578-.841-1.266-1.616z" fill="#0030a9"/></svg>