<svg xmlns="http://www.w3.org/2000/svg" width="48" height="48" fill="none" xmlns:v="https://vecta.io/nano"><path d="M21.259 35.194l2.619-8.861 4.081-1.161.853-2.933-4.02 1.222 4.264-14.544v-.232a.71.71 0 0 0-.224-.494c-.068-.064-.148-.113-.235-.146s-.18-.048-.272-.044h-5.421a.92.92 0 0 0-.572.178c-.166.122-.286.296-.341.494l-5.056 17.233-4.02 1.222L12 29.939l4.02-1.222-3.594 12.283h21.442c.206.009.408-.053.574-.175a.91.91 0 0 0 .339-.497L36 36.111v-.232a.71.71 0 0 0-.224-.494c-.068-.064-.148-.113-.234-.146s-.18-.048-.272-.044h-14.01z" fill="#005ca1"/></svg>